<svg version="1.1" viewBox="0.0 0.0 1632.1994750656168 224.0" fill="none" stroke="none" stroke-linecap="square" stroke-miterlimit="10" xmlns:xlink="http://www.w3.org/1999/xlink" xmlns="http://www.w3.org/2000/svg"><clipPath id="p.0"><path d="m0 0l1632.1995 0l0 224.0l-1632.1995 0l0 -224.0z" clip-rule="nonzero"/></clipPath><g clip-path="url(#p.0)"><path fill="#cccccc" d="m0 0l1632.1995 0l0 224.0l-1632.1995 0z" fill-rule="evenodd"/><path shape-rendering="crispEdges" fill="#efefef" d="m411.81235 72.38058l131.94485 0l0 41.595802l-131.94485 0l0 -41.595802z" fill-rule="nonzero"/><path shape-rendering="crispEdges" fill="#efefef" d="m543.7572 72.38058l76.078735 0l0 41.595802l-76.078735 0l0 -41.595802z" fill-rule="nonzero"/><path shape-rendering="crispEdges" fill="#efefef" d="m185.47375 113.97638l226.3386 0l0 41.595795l-226.3386 0l0 -41.595795z" fill-rule="nonzero"/><path shape-rendering="crispEdges" fill="#efefef" d="m411.81235 113.97638l208.02359 0l0 41.595795l-208.02359 0l0 -41.595795z" fill-rule="nonzero"/><path shape-rendering="crispEdges" fill="#efefef" d="m185.47375 155.57217l226.3386 0l0 41.59581l-226.3386 0l0 -41.59581z" fill-rule="nonzero"/><path stroke="#9e9e9e" stroke-width="2.0" stroke-linecap="butt" stroke-dasharray="8.0,6.0,2.0,6.0" d="m185.47375 71.38058l0 41.595802" fill-rule="nonzero"/><path stroke="#9e9e9e" stroke-width="2.0" stroke-linecap="butt" d="m185.47375 112.97638l0 85.191605" fill-rule="nonzero"/><path stroke="#9e9e9e" stroke-width="2.0" stroke-linecap="butt" d="m411.81235 71.38058l0 126.78741" fill-rule="nonzero"/><path stroke="#9e9e9e" stroke-width="2.0" stroke-linecap="butt" d="m543.7572 71.38058l0 43.595802" fill-rule="nonzero"/><path stroke="#9e9e9e" stroke-width="2.0" stroke-linecap="butt" d="m619.83594 71.38058l0 83.1916" fill-rule="nonzero"/><path stroke="#9e9e9e" stroke-width="2.0" stroke-linecap="butt" stroke-dasharray="8.0,6.0,2.0,6.0" d="m184.47375 72.38058l226.3386 0" fill-rule="nonzero"/><path stroke="#9e9e9e" stroke-width="2.0" stroke-linecap="butt" d="m410.81235 72.38058l210.02359 0" fill-rule="nonzero"/><path stroke="#9e9e9e" stroke-width="2.0" stroke-linecap="butt" d="m184.47375 113.97638l436.36218 0" fill-rule="nonzero"/><path stroke="#9e9e9e" stroke-width="2.0" stroke-linecap="butt" d="m184.47375 155.57217l226.3386 0" fill-rule="nonzero"/><path stroke="#999999" stroke-width="2.0" stroke-linecap="butt" d="m410.81235 155.57217l210.02359 0" fill-rule="nonzero"/><path stroke="#9e9e9e" stroke-width="2.0" stroke-linecap="butt" d="m184.47375 197.16798l226.3386 0" fill-rule="nonzero"/><path fill="#434343" d="m463.53427 97.2891q0 0.234375 -0.09375 0.453125q-0.09375 0.203125 -0.265625 0.375q-0.28125 0.28125 -0.78125 0.4375q-0.5 0.15625 -1.171875 0.15625q-0.4375 0 -0.875 -0.078125q-0.4375 -0.09375 -0.796875 -0.3125q-0.359375 -0.21875 -0.609375 -0.578125q-0.234375 -0.359375 -0.265625 -0.875l-1.6875 0q0 0.625 0.28125 1.21875q0.296875 0.578125 0.84375 1.015625q0.53125 0.4375 1.3125 0.71875q0.78125 0.265625 1.796875 0.265625q0.875 0 1.609375 -0.203125q0.734375 -0.21875 1.265625 -0.609375q0.53125 -0.375 0.8125 -0.90625q0.296875 -0.546875 0.296875 -1.203125q0 -0.609375 -0.265625 -1.0625q-0.25 -0.46875 -0.734375 -0.828125q-0.5 -0.34375 -1.21875 -0.59375q-0.71875 -0.25 -1.625 -0.453125q-0.6875 -0.125 -1.140625 -0.265625q-0.453125 -0.15625 -0.71875 -0.34375q-0.28125 -0.171875 -0.390625 -0.40625q-0.109375 -0.234375 -0.109375 -0.515625q0 -0.28125 0.140625 -0.546875q0.140625 -0.265625 0.40625 -0.46875q0.265625 -0.203125 0.671875 -0.3125q0.40625 -0.125 0.953125 -0.125q0.515625 0 0.921875 0.15625q0.421875 0.140625 0.71875 0.375q0.28125 0.234375 0.4375 0.546875q0.171875 0.296875 0.171875 0.625l1.6875 0q0 -0.65625 -0.28125 -1.21875q-0.265625 -0.5625 -0.78125 -0.96875q-0.515625 -0.421875 -1.25 -0.65625q-0.71875 -0.234375 -1.625 -0.234375q-0.859375 0 -1.5625 0.234375q-0.703125 0.21875 -1.21875 0.609375q-0.5 0.390625 -0.78125 0.921875q-0.28125 0.515625 -0.28125 1.109375q0 0.609375 0.265625 1.078125q0.28125 0.453125 0.78125 0.796875q0.484375 0.34375 1.171875 0.59375q0.703125 0.234375 1.5625 0.421875q0.6875 0.125 1.140625 0.296875q0.46875 0.171875 0.75 0.375q0.28125 0.203125 0.40625 0.4375q0.125 0.234375 0.125 0.546875zm4.8986816 -7.25l0 1.46875l3.359375 0l0 6.9375l-3.359375 0l0 1.453125l8.265625 0l0 -1.453125l-3.21875 0l0 -8.40625l-5.046875 0zm3.140625 -2.578125q0 0.40625 0.25 0.6875q0.25 0.265625 0.765625 0.265625q0.5 0 0.75 -0.265625q0.25 -0.28125 0.25 -0.6875q0 -0.234375 -0.078125 -0.421875q-0.0625 -0.1875 -0.203125 -0.328125q-0.125 -0.109375 -0.3125 -0.171875q-0.171875 -0.078125 -0.40625 -0.078125q-0.25 0 -0.4375 0.078125q-0.171875 0.0625 -0.296875 0.171875q-0.140625 0.140625 -0.21875 0.34375q-0.0625 0.1875 -0.0625 0.40625zm9.820587 11.0625l5.953125 -7.28125l0 -1.203125l-8.015625 0l0 1.390625l5.796875 0l-5.890625 7.234375l0 1.234375l8.4375 0l0 -1.375l-6.28125 0zm13.523682 1.5625q1.4375 0 2.421875 -0.578125q0.984375 -0.578125 1.46875 -1.328125l-1.03125 -0.796875q-0.46875 0.59375 -1.171875 0.96875q-0.6875 0.359375 -1.59375 0.359375q-0.6875 0 -1.25 -0.25q-0.5625 -0.265625 -0.96875 -0.71875q-0.390625 -0.40625 -0.609375 -0.953125q-0.21875 -0.546875 -0.28125 -1.265625l0 -0.078125l7.03125 0l0 -0.75q0 -1.03125 -0.265625 -1.90625q-0.25 -0.890625 -0.78125 -1.546875q-0.53125 -0.640625 -1.328125 -1.0q-0.796875 -0.375 -1.859375 -0.375q-0.84375 0 -1.65625 0.34375q-0.796875 0.34375 -1.4375 0.984375q-0.625 0.65625 -1.015625 1.609375q-0.375 0.9375 -0.375 2.125l0 0.390625q0 1.03125 0.34375 1.90625q0.34375 0.875 0.96875 1.5q0.609375 0.640625 1.484375 1.0q0.875 0.359375 1.90625 0.359375zm-0.21875 -8.84375q0.65625 0 1.125 0.234375q0.46875 0.234375 0.765625 0.625q0.3125 0.375 0.484375 0.90625q0.171875 0.515625 0.171875 0.984375l0 0.078125l-5.296875 0q0.09375 -0.6875 0.34375 -1.203125q0.265625 -0.53125 0.625 -0.890625q0.359375 -0.359375 0.8125 -0.546875q0.453125 -0.1875 0.96875 -0.1875z" fill-rule="nonzero"/><path fill="#434343" d="m557.9014 99.898476l1.703125 0l0 -8.546875l3.796875 0l0 -1.3125l-3.796875 0l0 -0.6875q0 -0.625 0.15625 -1.078125q0.15625 -0.46875 0.46875 -0.765625q0.296875 -0.28125 0.734375 -0.421875q0.4375 -0.140625 1.015625 -0.140625q0.5625 0 1.0625 0.09375q0.5 0.09375 0.875 0.21875l0.1875 -1.390625q-0.234375 -0.0625 -0.46875 -0.109375q-0.21875 -0.046875 -0.453125 -0.09375q-0.34375 -0.0625 -0.703125 -0.109375q-0.34375 -0.046875 -0.703125 -0.046875q-0.875 0 -1.59375 0.25q-0.703125 0.25 -1.203125 0.734375q-0.515625 0.484375 -0.796875 1.203125q-0.28125 0.703125 -0.28125 1.65625l0 0.6875l-2.703125 0l0 1.3125l2.703125 0l0 8.546875zm8.945557 -14.0l0 1.46875l3.359375 0l0 11.078125l-3.359375 0l0 1.453125l8.265625 0l0 -1.453125l-3.21875 0l0 -12.546875l-5.046875 0zm17.414307 14.0l1.75 0l0 -0.140625q-0.15625 -0.421875 -0.25 -0.96875q-0.09375 -0.546875 -0.09375 -1.046875l0 -4.578125q0 -0.828125 -0.296875 -1.4375q-0.296875 -0.625 -0.8125 -1.046875q-0.53125 -0.40625 -1.25 -0.609375q-0.71875 -0.203125 -1.5625 -0.203125q-0.921875 0 -1.65625 0.25q-0.71875 0.25 -1.21875 0.65625q-0.5 0.421875 -0.78125 0.953125q-0.265625 0.515625 -0.265625 1.046875l1.6875 0q0 -0.3125 0.140625 -0.59375q0.15625 -0.28125 0.4375 -0.5q0.265625 -0.203125 0.65625 -0.328125q0.40625 -0.140625 0.90625 -0.140625q0.546875 0 0.96875 0.140625q0.4375 0.140625 0.734375 0.390625q0.296875 0.25 0.453125 0.609375q0.171875 0.34375 0.171875 0.796875l0 0.78125l-1.828125 0q-1.03125 0 -1.875 0.203125q-0.828125 0.1875 -1.421875 0.59375q-0.59375 0.40625 -0.921875 1.015625q-0.3125 0.609375 -0.3125 1.421875q0 0.625 0.234375 1.15625q0.25 0.53125 0.6875 0.90625q0.4375 0.40625 1.0625 0.640625q0.640625 0.21875 1.4375 0.21875q0.46875 0 0.890625 -0.109375q0.4375 -0.09375 0.828125 -0.265625q0.375 -0.171875 0.6875 -0.390625q0.3125 -0.234375 0.5625 -0.5q0.03125 0.3125 0.09375 0.609375q0.0625 0.28125 0.15625 0.46875zm-2.984375 -1.28125q-0.484375 0 -0.859375 -0.125q-0.375 -0.140625 -0.625 -0.359375q-0.234375 -0.21875 -0.359375 -0.53125q-0.125 -0.3125 -0.125 -0.671875q0 -0.390625 0.140625 -0.6875q0.140625 -0.296875 0.40625 -0.515625q0.390625 -0.3125 1.03125 -0.453125q0.65625 -0.15625 1.53125 -0.15625l1.5625 0l0 2.0q-0.140625 0.28125 -0.40625 0.5625q-0.25 0.265625 -0.59375 0.46875q-0.34375 0.203125 -0.78125 0.34375q-0.421875 0.125 -0.921875 0.125zm7.3986816 -3.734375l0 0.203125q0 1.046875 0.265625 1.96875q0.28125 0.90625 0.78125 1.59375q0.5 0.671875 1.234375 1.0625q0.734375 0.375 1.625 0.375q0.546875 0 1.0 -0.125q0.46875 -0.109375 0.859375 -0.3125q0.234375 -0.140625 0.453125 -0.3125q0.21875 -0.1875 0.40625 -0.40625l0 0.84375q0 0.640625 -0.1875 1.125q-0.171875 0.5 -0.515625 0.828125q-0.34375 0.328125 -0.828125 0.5q-0.484375 0.171875 -1.078125 0.171875q-0.34375 0 -0.6875 -0.0625q-0.328125 -0.0625 -0.671875 -0.21875q-0.328125 -0.15625 -0.65625 -0.421875q-0.328125 -0.25 -0.640625 -0.625l-0.875 1.0q0.34375 0.484375 0.8125 0.8125q0.46875 0.328125 0.96875 0.515625q0.5 0.203125 0.984375 0.28125q0.5 0.09375 0.890625 0.09375q0.921875 0 1.6875 -0.28125q0.765625 -0.265625 1.328125 -0.78125q0.546875 -0.53125 0.84375 -1.296875q0.3125 -0.75 0.3125 -1.71875l0 -9.65625l-1.53125 0l-0.078125 1.078125q-0.171875 -0.21875 -0.375 -0.390625q-0.1875 -0.1875 -0.40625 -0.328125q-0.40625 -0.265625 -0.90625 -0.390625q-0.5 -0.140625 -1.09375 -0.140625q-0.90625 0 -1.640625 0.375q-0.734375 0.359375 -1.234375 1.03125q-0.515625 0.65625 -0.78125 1.59375q-0.265625 0.921875 -0.265625 2.015625zm1.671875 0.203125l0 -0.203125q0 -0.71875 0.15625 -1.359375q0.15625 -0.65625 0.484375 -1.15625q0.3125 -0.5 0.8125 -0.78125q0.515625 -0.296875 1.21875 -0.296875q0.421875 0 0.765625 0.109375q0.34375 0.09375 0.625 0.28125q0.296875 0.1875 0.515625 0.453125q0.21875 0.25 0.375 0.5625l0 4.515625q-0.15625 0.3125 -0.375 0.578125q-0.21875 0.265625 -0.5 0.453125q-0.28125 0.203125 -0.640625 0.3125q-0.34375 0.09375 -0.78125 0.09375q-0.703125 0 -1.203125 -0.28125q-0.5 -0.296875 -0.8125 -0.78125q-0.328125 -0.5 -0.484375 -1.140625q-0.15625 -0.640625 -0.15625 -1.359375zm16.383118 2.203125q0 0.234375 -0.09375 0.453125q-0.09375 0.203125 -0.265625 0.375q-0.28125 0.28125 -0.78125 0.4375q-0.5 0.15625 -1.171875 0.15625q-0.4375 0 -0.875 -0.078125q-0.4375 -0.09375 -0.796875 -0.3125q-0.359375 -0.21875 -0.609375 -0.578125q-0.234375 -0.359375 -0.265625 -0.875l-1.6875 0q0 0.625 0.28125 1.21875q0.296875 0.578125 0.84375 1.015625q0.53125 0.4375 1.3125 0.71875q0.78125 0.265625 1.796875 0.265625q0.875 0 1.609375 -0.203125q0.734375 -0.21875 1.265625 -0.609375q0.53125 -0.375 0.8125 -0.90625q0.296875 -0.546875 0.296875 -1.203125q0 -0.609375 -0.265625 -1.0625q-0.25 -0.46875 -0.734375 -0.828125q-0.5 -0.34375 -1.21875 -0.59375q-0.71875 -0.25 -1.625 -0.453125q-0.6875 -0.125 -1.140625 -0.265625q-0.453125 -0.15625 -0.71875 -0.34375q-0.28125 -0.171875 -0.390625 -0.40625q-0.109375 -0.234375 -0.109375 -0.515625q0 -0.28125 0.140625 -0.546875q0.140625 -0.265625 0.40625 -0.46875q0.265625 -0.203125 0.671875 -0.3125q0.40625 -0.125 0.953125 -0.125q0.515625 0 0.921875 0.15625q0.421875 0.140625 0.71875 0.375q0.28125 0.234375 0.4375 0.546875q0.171875 0.296875 0.171875 0.625l1.6875 0q0 -0.65625 -0.28125 -1.21875q-0.265625 -0.5625 -0.78125 -0.96875q-0.515625 -0.421875 -1.25 -0.65625q-0.71875 -0.234375 -1.625 -0.234375q-0.859375 0 -1.5625 0.234375q-0.703125 0.21875 -1.21875 0.609375q-0.5 0.390625 -0.78125 0.921875q-0.28125 0.515625 -0.28125 1.109375q0 0.609375 0.265625 1.078125q0.28125 0.453125 0.78125 0.796875q0.484375 0.34375 1.171875 0.59375q0.703125 0.234375 1.5625 0.421875q0.6875 0.125 1.140625 0.296875q0.46875 0.171875 0.75 0.375q0.28125 0.203125 0.40625 0.4375q0.125 0.234375 0.125 0.546875z" fill-rule="nonzero"/><path fill="#434343" d="m291.54123 141.49428l1.703125 0l0 -8.546875l3.796875 0l0 -1.3125l-3.796875 0l0 -0.6875q0 -0.625 0.15625 -1.078125q0.15625 -0.46875 0.46875 -0.765625q0.296875 -0.28125 0.734375 -0.421875q0.4375 -0.140625 1.015625 -0.140625q0.5625 0 1.0625 0.09375q0.5 0.09375 0.875 0.21875l0.1875 -1.390625q-0.234375 -0.0625 -0.46875 -0.109375q-0.21875 -0.046875 -0.453125 -0.09375q-0.34375 -0.0625 -0.703125 -0.109375q-0.34375 -0.046875 -0.703125 -0.046875q-0.875 0 -1.59375 0.25q-0.703125 0.25 -1.203125 0.734375q-0.515625 0.484375 -0.796875 1.203125q-0.28125 0.703125 -0.28125 1.65625l0 0.6875l-2.703125 0l0 1.3125l2.703125 0l0 8.546875zm8.367432 -5.015625l0 0.203125q0 1.046875 0.28125 1.96875q0.28125 0.90625 0.796875 1.59375q0.5 0.671875 1.21875 1.0625q0.734375 0.375 1.625 0.375q0.921875 0 1.59375 -0.3125q0.6875 -0.3125 1.1875 -0.90625l0.0625 1.03125l1.546875 0l0 -14.0l-1.6875 0l0 5.125q-0.46875 -0.578125 -1.140625 -0.859375q-0.65625 -0.296875 -1.546875 -0.296875q-0.890625 0 -1.625 0.375q-0.734375 0.359375 -1.234375 1.03125q-0.515625 0.65625 -0.796875 1.59375q-0.28125 0.921875 -0.28125 2.015625zm1.6875 0.203125l0 -0.203125q0 -0.71875 0.15625 -1.359375q0.15625 -0.65625 0.484375 -1.15625q0.3125 -0.5 0.8125 -0.78125q0.515625 -0.296875 1.21875 -0.296875q0.828125 0 1.375 0.390625q0.5625 0.390625 0.890625 0.984375l0 4.578125q-0.328125 0.640625 -0.890625 1.03125q-0.546875 0.375 -1.390625 0.375q-0.703125 0 -1.203125 -0.28125q-0.5 -0.296875 -0.8125 -0.78125q-0.328125 -0.5 -0.484375 -1.140625q-0.15625 -0.640625 -0.15625 -1.359375z" fill-rule="nonzero"/><path shape-rendering="crispEdges" fill="#efefef" d="m907.5131 72.38058l131.94489 0l0 41.595802l-131.94489 0l0 -41.595802z" fill-rule="nonzero"/><path shape-rendering="crispEdges" fill="#efefef" d="m1039.458 72.38058l76.078735 0l0 41.595802l-76.078735 0l0 -41.595802z" fill-rule="nonzero"/><path shape-rendering="crispEdges" fill="#efefef" d="m681.17456 113.97638l226.33856 0l0 41.595795l-226.33856 0l0 -41.595795z" fill-rule="nonzero"/><path shape-rendering="crispEdges" fill="#efefef" d="m907.5131 113.97638l208.02362 0l0 41.595795l-208.02362 0l0 -41.595795z" fill-rule="nonzero"/><path shape-rendering="crispEdges" fill="#efefef" d="m681.17456 155.57217l226.33856 0l0 41.59581l-226.33856 0l0 -41.59581z" fill-rule="nonzero"/><path stroke="#9e9e9e" stroke-width="2.0" stroke-linecap="butt" stroke-dasharray="8.0,6.0,2.0,6.0" d="m681.17456 71.38058l0 41.595802" fill-rule="nonzero"/><path stroke="#9e9e9e" stroke-width="2.0" stroke-linecap="butt" d="m681.17456 112.97638l0 85.191605" fill-rule="nonzero"/><path stroke="#9e9e9e" stroke-width="2.0" stroke-linecap="butt" d="m907.5131 71.38058l0 126.78741" fill-rule="nonzero"/><path stroke="#9e9e9e" stroke-width="2.0" stroke-linecap="butt" d="m1039.458 71.38058l0 43.595802" fill-rule="nonzero"/><path stroke="#9e9e9e" stroke-width="2.0" stroke-linecap="butt" d="m1115.5367 71.38058l0 83.1916" fill-rule="nonzero"/><path stroke="#9e9e9e" stroke-width="2.0" stroke-linecap="butt" stroke-dasharray="8.0,6.0,2.0,6.0" d="m680.17456 72.38058l226.33856 0" fill-rule="nonzero"/><path stroke="#9e9e9e" stroke-width="2.0" stroke-linecap="butt" d="m906.5131 72.38058l210.02362 0" fill-rule="nonzero"/><path stroke="#9e9e9e" stroke-width="2.0" stroke-linecap="butt" d="m680.17456 113.97638l436.36218 0" fill-rule="nonzero"/><path stroke="#9e9e9e" stroke-width="2.0" stroke-linecap="butt" d="m680.17456 155.57217l226.33856 0" fill-rule="nonzero"/><path stroke="#999999" stroke-width="2.0" stroke-linecap="butt" d="m906.5131 155.57217l210.02362 0" fill-rule="nonzero"/><path stroke="#9e9e9e" stroke-width="2.0" stroke-linecap="butt" d="m680.17456 197.16798l226.33856 0" fill-rule="nonzero"/><path fill="#434343" d="m959.23505 97.2891q0 0.234375 -0.09375 0.453125q-0.09375 0.203125 -0.265625 0.375q-0.28125 0.28125 -0.78125 0.4375q-0.5 0.15625 -1.171875 0.15625q-0.4375 0 -0.875 -0.078125q-0.4375 -0.09375 -0.796875 -0.3125q-0.359375 -0.21875 -0.609375 -0.578125q-0.234375 -0.359375 -0.265625 -0.875l-1.6875 0q0 0.625 0.28125 1.21875q0.296875 0.578125 0.84375 1.015625q0.53125 0.4375 1.3125 0.71875q0.78125 0.265625 1.796875 0.265625q0.875 0 1.609375 -0.203125q0.734375 -0.21875 1.265625 -0.609375q0.53125 -0.375 0.8125 -0.90625q0.296875 -0.546875 0.296875 -1.203125q0 -0.609375 -0.265625 -1.0625q-0.25 -0.46875 -0.734375 -0.828125q-0.5 -0.34375 -1.21875 -0.59375q-0.71875 -0.25 -1.625 -0.453125q-0.6875 -0.125 -1.140625 -0.265625q-0.453125 -0.15625 -0.71875 -0.34375q-0.28125 -0.171875 -0.390625 -0.40625q-0.109375 -0.234375 -0.109375 -0.515625q0 -0.28125 0.140625 -0.546875q0.140625 -0.265625 0.40625 -0.46875q0.265625 -0.203125 0.671875 -0.3125q0.40625 -0.125 0.953125 -0.125q0.515625 0 0.921875 0.15625q0.421875 0.140625 0.71875 0.375q0.28125 0.234375 0.4375 0.546875q0.171875 0.296875 0.171875 0.625l1.6875 0q0 -0.65625 -0.28125 -1.21875q-0.265625 -0.5625 -0.78125 -0.96875q-0.515625 -0.421875 -1.25 -0.65625q-0.71875 -0.234375 -1.625 -0.234375q-0.859375 0 -1.5625 0.234375q-0.703125 0.21875 -1.21875 0.609375q-0.5 0.390625 -0.78125 0.921875q-0.28125 0.515625 -0.28125 1.109375q0 0.609375 0.265625 1.078125q0.28125 0.453125 0.78125 0.796875q0.484375 0.34375 1.171875 0.59375q0.703125 0.234375 1.5625 0.421875q0.6875 0.125 1.140625 0.296875q0.46875 0.171875 0.75 0.375q0.28125 0.203125 0.40625 0.4375q0.125 0.234375 0.125 0.546875zm4.8986816 -7.25l0 1.46875l3.359375 0l0 6.9375l-3.359375 0l0 1.453125l8.265625 0l0 -1.453125l-3.21875 0l0 -8.40625l-5.046875 0zm3.140625 -2.578125q0 0.40625 0.25 0.6875q0.25 0.265625 0.765625 0.265625q0.5 0 0.75 -0.265625q0.25 -0.28125 0.25 -0.6875q0 -0.234375 -0.078125 -0.421875q-0.0625 -0.1875 -0.203125 -0.328125q-0.125 -0.109375 -0.3125 -0.171875q-0.171875 -0.078125 -0.40625 -0.078125q-0.25 0 -0.4375 0.078125q-0.171875 0.0625 -0.296875 0.171875q-0.140625 0.140625 -0.21875 0.34375q-0.0625 0.1875 -0.0625 0.40625zm9.820618 11.0625l5.953125 -7.28125l0 -1.203125l-8.015625 0l0 1.390625l5.796875 0l-5.890625 7.234375l0 1.234375l8.4375 0l0 -1.375l-6.28125 0zm13.523682 1.5625q1.4375 0 2.421875 -0.578125q0.984375 -0.578125 1.46875 -1.328125l-1.03125 -0.796875q-0.46875 0.59375 -1.171875 0.96875q-0.6875 0.359375 -1.59375 0.359375q-0.6875 0 -1.25 -0.25q-0.5625 -0.265625 -0.96875 -0.71875q-0.390625 -0.40625 -0.609375 -0.953125q-0.21875 -0.546875 -0.28125 -1.265625l0 -0.078125l7.03125 0l0 -0.75q0 -1.03125 -0.265625 -1.90625q-0.25 -0.890625 -0.78125 -1.546875q-0.53125 -0.640625 -1.328125 -1.0q-0.796875 -0.375 -1.859375 -0.375q-0.84375 0 -1.65625 0.34375q-0.796875 0.34375 -1.4375 0.984375q-0.625 0.65625 -1.015625 1.609375q-0.375 0.9375 -0.375 2.125l0 0.390625q0 1.03125 0.34375 1.90625q0.34375 0.875 0.96875 1.5q0.609375 0.640625 1.484375 1.0q0.875 0.359375 1.90625 0.359375zm-0.21875 -8.84375q0.65625 0 1.125 0.234375q0.46875 0.234375 0.765625 0.625q0.3125 0.375 0.484375 0.90625q0.171875 0.515625 0.171875 0.984375l0 0.078125l-5.296875 0q0.09375 -0.6875 0.34375 -1.203125q0.265625 -0.53125 0.625 -0.890625q0.359375 -0.359375 0.8125 -0.546875q0.453125 -0.1875 0.96875 -0.1875z" fill-rule="nonzero"/><path fill="#434343" d="m1053.6022 99.898476l1.703125 0l0 -8.546875l3.796875 0l0 -1.3125l-3.796875 0l0 -0.6875q0 -0.625 0.15625 -1.078125q0.15625 -0.46875 0.46875 -0.765625q0.296875 -0.28125 0.734375 -0.421875q0.4375 -0.140625 1.015625 -0.140625q0.5625 0 1.0625 0.09375q0.5 0.09375 0.875 0.21875l0.1875 -1.390625q-0.234375 -0.0625 -0.46875 -0.109375q-0.21875 -0.046875 -0.453125 -0.09375q-0.34375 -0.0625 -0.703125 -0.109375q-0.34375 -0.046875 -0.703125 -0.046875q-0.875 0 -1.59375 0.25q-0.703125 0.25 -1.203125 0.734375q-0.515625 0.484375 -0.796875 1.203125q-0.28125 0.703125 -0.28125 1.65625l0 0.6875l-2.703125 0l0 1.3125l2.703125 0l0 8.546875zm8.945557 -14.0l0 1.46875l3.359375 0l0 11.078125l-3.359375 0l0 1.453125l8.265625 0l0 -1.453125l-3.21875 0l0 -12.546875l-5.046875 0zm17.414307 14.0l1.75 0l0 -0.140625q-0.15625 -0.421875 -0.25 -0.96875q-0.09375 -0.546875 -0.09375 -1.046875l0 -4.578125q0 -0.828125 -0.296875 -1.4375q-0.296875 -0.625 -0.8125 -1.046875q-0.53125 -0.40625 -1.25 -0.609375q-0.71875 -0.203125 -1.5625 -0.203125q-0.921875 0 -1.65625 0.25q-0.71875 0.25 -1.21875 0.65625q-0.5 0.421875 -0.78125 0.953125q-0.265625 0.515625 -0.265625 1.046875l1.6875 0q0 -0.3125 0.140625 -0.59375q0.15625 -0.28125 0.4375 -0.5q0.265625 -0.203125 0.65625 -0.328125q0.40625 -0.140625 0.90625 -0.140625q0.546875 0 0.96875 0.140625q0.4375 0.140625 0.734375 0.390625q0.296875 0.25 0.453125 0.609375q0.171875 0.34375 0.171875 0.796875l0 0.78125l-1.828125 0q-1.03125 0 -1.875 0.203125q-0.828125 0.1875 -1.421875 0.59375q-0.59375 0.40625 -0.921875 1.015625q-0.3125 0.609375 -0.3125 1.421875q0 0.625 0.234375 1.15625q0.25 0.53125 0.6875 0.90625q0.4375 0.40625 1.0625 0.640625q0.640625 0.21875 1.4375 0.21875q0.46875 0 0.890625 -0.109375q0.4375 -0.09375 0.828125 -0.265625q0.375 -0.171875 0.6875 -0.390625q0.3125 -0.234375 0.5625 -0.5q0.03125 0.3125 0.09375 0.609375q0.0625 0.28125 0.15625 0.46875zm-2.984375 -1.28125q-0.484375 0 -0.859375 -0.125q-0.375 -0.140625 -0.625 -0.359375q-0.234375 -0.21875 -0.359375 -0.53125q-0.125 -0.3125 -0.125 -0.671875q0 -0.390625 0.140625 -0.6875q0.140625 -0.296875 0.40625 -0.515625q0.390625 -0.3125 1.03125 -0.453125q0.65625 -0.15625 1.53125 -0.15625l1.5625 0l0 2.0q-0.140625 0.28125 -0.40625 0.5625q-0.25 0.265625 -0.59375 0.46875q-0.34375 0.203125 -0.78125 0.34375q-0.421875 0.125 -0.921875 0.125zm7.3988037 -3.734375l0 0.203125q0 1.046875 0.265625 1.96875q0.28125 0.90625 0.78125 1.59375q0.5 0.671875 1.234375 1.0625q0.734375 0.375 1.625 0.375q0.546875 0 1.0 -0.125q0.46875 -0.109375 0.859375 -0.3125q0.234375 -0.140625 0.453125 -0.3125q0.21875 -0.1875 0.40625 -0.40625l0 0.84375q0 0.640625 -0.1875 1.125q-0.171875 0.5 -0.515625 0.828125q-0.34375 0.328125 -0.828125 0.5q-0.484375 0.171875 -1.078125 0.171875q-0.34375 0 -0.6875 -0.0625q-0.328125 -0.0625 -0.671875 -0.21875q-0.328125 -0.15625 -0.65625 -0.421875q-0.328125 -0.25 -0.640625 -0.625l-0.875 1.0q0.34375 0.484375 0.8125 0.8125q0.46875 0.328125 0.96875 0.515625q0.5 0.203125 0.984375 0.28125q0.5 0.09375 0.890625 0.09375q0.921875 0 1.6875 -0.28125q0.765625 -0.265625 1.328125 -0.78125q0.546875 -0.53125 0.84375 -1.296875q0.3125 -0.75 0.3125 -1.71875l0 -9.65625l-1.53125 0l-0.078125 1.078125q-0.171875 -0.21875 -0.375 -0.390625q-0.1875 -0.1875 -0.40625 -0.328125q-0.40625 -0.265625 -0.90625 -0.390625q-0.5 -0.140625 -1.09375 -0.140625q-0.90625 0 -1.640625 0.375q-0.734375 0.359375 -1.234375 1.03125q-0.515625 0.65625 -0.78125 1.59375q-0.265625 0.921875 -0.265625 2.015625zm1.671875 0.203125l0 -0.203125q0 -0.71875 0.15625 -1.359375q0.15625 -0.65625 0.484375 -1.15625q0.3125 -0.5 0.8125 -0.78125q0.515625 -0.296875 1.21875 -0.296875q0.421875 0 0.765625 0.109375q0.34375 0.09375 0.625 0.28125q0.296875 0.1875 0.515625 0.453125q0.21875 0.25 0.375 0.5625l0 4.515625q-0.15625 0.3125 -0.375 0.578125q-0.21875 0.265625 -0.5 0.453125q-0.28125 0.203125 -0.640625 0.3125q-0.34375 0.09375 -0.78125 0.09375q-0.703125 0 -1.203125 -0.28125q-0.5 -0.296875 -0.8125 -0.78125q-0.328125 -0.5 -0.484375 -1.140625q-0.15625 -0.640625 -0.15625 -1.359375zm16.383057 2.203125q0 0.234375 -0.09375 0.453125q-0.09375 0.203125 -0.265625 0.375q-0.28125 0.28125 -0.78125 0.4375q-0.5 0.15625 -1.171875 0.15625q-0.4375 0 -0.875 -0.078125q-0.4375 -0.09375 -0.796875 -0.3125q-0.359375 -0.21875 -0.609375 -0.578125q-0.234375 -0.359375 -0.265625 -0.875l-1.6875 0q0 0.625 0.28125 1.21875q0.296875 0.578125 0.84375 1.015625q0.53125 0.4375 1.3125 0.71875q0.78125 0.265625 1.796875 0.265625q0.875 0 1.609375 -0.203125q0.734375 -0.21875 1.265625 -0.609375q0.53125 -0.375 0.8125 -0.90625q0.296875 -0.546875 0.296875 -1.203125q0 -0.609375 -0.265625 -1.0625q-0.25 -0.46875 -0.734375 -0.828125q-0.5 -0.34375 -1.21875 -0.59375q-0.71875 -0.25 -1.625 -0.453125q-0.6875 -0.125 -1.140625 -0.265625q-0.453125 -0.15625 -0.71875 -0.34375q-0.28125 -0.171875 -0.390625 -0.40625q-0.109375 -0.234375 -0.109375 -0.515625q0 -0.28125 0.140625 -0.546875q0.140625 -0.265625 0.40625 -0.46875q0.265625 -0.203125 0.671875 -0.3125q0.40625 -0.125 0.953125 -0.125q0.515625 0 0.921875 0.15625q0.421875 0.140625 0.71875 0.375q0.28125 0.234375 0.4375 0.546875q0.171875 0.296875 0.171875 0.625l1.6875 0q0 -0.65625 -0.28125 -1.21875q-0.265625 -0.5625 -0.78125 -0.96875q-0.515625 -0.421875 -1.25 -0.65625q-0.71875 -0.234375 -1.625 -0.234375q-0.859375 0 -1.5625 0.234375q-0.703125 0.21875 -1.21875 0.609375q-0.5 0.390625 -0.78125 0.921875q-0.28125 0.515625 -0.28125 1.109375q0 0.609375 0.265625 1.078125q0.28125 0.453125 0.78125 0.796875q0.484375 0.34375 1.171875 0.59375q0.703125 0.234375 1.5625 0.421875q0.6875 0.125 1.140625 0.296875q0.46875 0.171875 0.75 0.375q0.28125 0.203125 0.40625 0.4375q0.125 0.234375 0.125 0.546875z" fill-rule="nonzero"/><path fill="#434343" d="m787.242 141.49428l1.703125 0l0 -8.546875l3.796875 0l0 -1.3125l-3.796875 0l0 -0.6875q0 -0.625 0.15625 -1.078125q0.15625 -0.46875 0.46875 -0.765625q0.296875 -0.28125 0.734375 -0.421875q0.4375 -0.140625 1.015625 -0.140625q0.5625 0 1.0625 0.09375q0.5 0.09375 0.875 0.21875l0.1875 -1.390625q-0.234375 -0.0625 -0.46875 -0.109375q-0.21875 -0.046875 -0.453125 -0.09375q-0.34375 -0.0625 -0.703125 -0.109375q-0.34375 -0.046875 -0.703125 -0.046875q-0.875 0 -1.59375 0.25q-0.703125 0.25 -1.203125 0.734375q-0.515625 0.484375 -0.796875 1.203125q-0.28125 0.703125 -0.28125 1.65625l0 0.6875l-2.703125 0l0 1.3125l2.703125 0l0 8.546875zm8.367432 -5.015625l0 0.203125q0 1.046875 0.28125 1.96875q0.28125 0.90625 0.796875 1.59375q0.5 0.671875 1.21875 1.0625q0.734375 0.375 1.625 0.375q0.921875 0 1.59375 -0.3125q0.6875 -0.3125 1.1875 -0.90625l0.0625 1.03125l1.546875 0l0 -14.0l-1.6875 0l0 5.125q-0.46875 -0.578125 -1.140625 -0.859375q-0.65625 -0.296875 -1.546875 -0.296875q-0.890625 0 -1.625 0.375q-0.734375 0.359375 -1.234375 1.03125q-0.515625 0.65625 -0.796875 1.59375q-0.28125 0.921875 -0.28125 2.015625zm1.6875 0.203125l0 -0.203125q0 -0.71875 0.15625 -1.359375q0.15625 -0.65625 0.484375 -1.15625q0.3125 -0.5 0.8125 -0.78125q0.515625 -0.296875 1.21875 -0.296875q0.828125 0 1.375 0.390625q0.5625 0.390625 0.890625 0.984375l0 4.578125q-0.328125 0.640625 -0.890625 1.03125q-0.546875 0.375 -1.390625 0.375q-0.703125 0 -1.203125 -0.28125q-0.5 -0.296875 -0.8125 -0.78125q-0.328125 -0.5 -0.484375 -1.140625q-0.15625 -0.640625 -0.15625 -1.359375z" fill-rule="nonzero"/><path fill="#000000" fill-opacity="0.0" d="m310.05643 114.15879l0 0l0 -78.23622l177.63779 0" fill-rule="evenodd"/><path stroke="#434343" stroke-width="1.0" stroke-linejoin="round" stroke-linecap="butt" d="m310.05643 114.15879l0 0l0 -78.23622l177.63779 0" fill-rule="evenodd"/><path fill="#000000" fill-opacity="0.0" d="m487.6942 35.922573l157.51624 0l0 53.92126l35.96411 0" fill-rule="evenodd"/><path stroke="#434343" stroke-width="1.0" stroke-linejoin="round" stroke-linecap="butt" d="m487.6942 35.922573l157.51624 0l0 53.92126l29.964111 0" fill-rule="evenodd"/><path fill="#434343" stroke="#434343" stroke-width="1.0" stroke-linecap="butt" d="m675.17456 91.49557l4.538086 -1.6517334l-4.538086 -1.6517334z" fill-rule="evenodd"/><path shape-rendering="crispEdges" fill="#efefef" d="m1403.2139 72.38058l131.94495 0l0 41.595802l-131.94495 0l0 -41.595802z" fill-rule="nonzero"/><path shape-rendering="crispEdges" fill="#efefef" d="m1535.1588 72.38058l76.078735 0l0 41.595802l-76.078735 0l0 -41.595802z" fill-rule="nonzero"/><path shape-rendering="crispEdges" fill="#efefef" d="m1176.8754 113.97638l226.3385 0l0 41.595795l-226.3385 0l0 -41.595795z" fill-rule="nonzero"/><path shape-rendering="crispEdges" fill="#efefef" d="m1403.2139 113.97638l208.02368 0l0 41.595795l-208.02368 0l0 -41.595795z" fill-rule="nonzero"/><path shape-rendering="crispEdges" fill="#efefef" d="m1176.8754 155.57217l226.3385 0l0 41.59581l-226.3385 0l0 -41.59581z" fill-rule="nonzero"/><path stroke="#9e9e9e" stroke-width="2.0" stroke-linecap="butt" stroke-dasharray="8.0,6.0,2.0,6.0" d="m1176.8754 71.38058l0 41.595802" fill-rule="nonzero"/><path stroke="#9e9e9e" stroke-width="2.0" stroke-linecap="butt" d="m1176.8754 112.97638l0 85.191605" fill-rule="nonzero"/><path stroke="#9e9e9e" stroke-width="2.0" stroke-linecap="butt" d="m1403.2139 71.38058l0 126.78741" fill-rule="nonzero"/><path stroke="#9e9e9e" stroke-width="2.0" stroke-linecap="butt" d="m1535.1588 71.38058l0 43.595802" fill-rule="nonzero"/><path stroke="#9e9e9e" stroke-width="2.0" stroke-linecap="butt" d="m1611.2375 71.38058l0 83.1916" fill-rule="nonzero"/><path stroke="#9e9e9e" stroke-width="2.0" stroke-linecap="butt" stroke-dasharray="8.0,6.0,2.0,6.0" d="m1175.8754 72.38058l226.3385 0" fill-rule="nonzero"/><path stroke="#9e9e9e" stroke-width="2.0" stroke-linecap="butt" d="m1402.2139 72.38058l210.02368 0" fill-rule="nonzero"/><path stroke="#9e9e9e" stroke-width="2.0" stroke-linecap="butt" d="m1175.8754 113.97638l436.36218 0" fill-rule="nonzero"/><path stroke="#9e9e9e" stroke-width="2.0" stroke-linecap="butt" d="m1175.8754 155.57217l226.3385 0" fill-rule="nonzero"/><path stroke="#999999" stroke-width="2.0" stroke-linecap="butt" d="m1402.2139 155.57217l210.02368 0" fill-rule="nonzero"/><path stroke="#9e9e9e" stroke-width="2.0" stroke-linecap="butt" d="m1175.8754 197.16798l226.3385 0" fill-rule="nonzero"/><path fill="#434343" d="m1454.9358 97.2891q0 0.234375 -0.09375 0.453125q-0.09375 0.203125 -0.265625 0.375q-0.28125 0.28125 -0.78125 0.4375q-0.5 0.15625 -1.171875 0.15625q-0.4375 0 -0.875 -0.078125q-0.4375 -0.09375 -0.796875 -0.3125q-0.359375 -0.21875 -0.609375 -0.578125q-0.234375 -0.359375 -0.265625 -0.875l-1.6875 0q0 0.625 0.28125 1.21875q0.296875 0.578125 0.84375 1.015625q0.53125 0.4375 1.3125 0.71875q0.78125 0.265625 1.796875 0.265625q0.875 0 1.609375 -0.203125q0.734375 -0.21875 1.265625 -0.609375q0.53125 -0.375 0.8125 -0.90625q0.296875 -0.546875 0.296875 -1.203125q0 -0.609375 -0.265625 -1.0625q-0.25 -0.46875 -0.734375 -0.828125q-0.5 -0.34375 -1.21875 -0.59375q-0.71875 -0.25 -1.625 -0.453125q-0.6875 -0.125 -1.140625 -0.265625q-0.453125 -0.15625 -0.71875 -0.34375q-0.28125 -0.171875 -0.390625 -0.40625q-0.109375 -0.234375 -0.109375 -0.515625q0 -0.28125 0.140625 -0.546875q0.140625 -0.265625 0.40625 -0.46875q0.265625 -0.203125 0.671875 -0.3125q0.40625 -0.125 0.953125 -0.125q0.515625 0 0.921875 0.15625q0.421875 0.140625 0.71875 0.375q0.28125 0.234375 0.4375 0.546875q0.171875 0.296875 0.171875 0.625l1.6875 0q0 -0.65625 -0.28125 -1.21875q-0.265625 -0.5625 -0.78125 -0.96875q-0.515625 -0.421875 -1.25 -0.65625q-0.71875 -0.234375 -1.625 -0.234375q-0.859375 0 -1.5625 0.234375q-0.703125 0.21875 -1.21875 0.609375q-0.5 0.390625 -0.78125 0.921875q-0.28125 0.515625 -0.28125 1.109375q0 0.609375 0.265625 1.078125q0.28125 0.453125 0.78125 0.796875q0.484375 0.34375 1.171875 0.59375q0.703125 0.234375 1.5625 0.421875q0.6875 0.125 1.140625 0.296875q0.46875 0.171875 0.75 0.375q0.28125 0.203125 0.40625 0.4375q0.125 0.234375 0.125 0.546875zm4.8986816 -7.25l0 1.46875l3.359375 0l0 6.9375l-3.359375 0l0 1.453125l8.265625 0l0 -1.453125l-3.21875 0l0 -8.40625l-5.046875 0zm3.140625 -2.578125q0 0.40625 0.25 0.6875q0.25 0.265625 0.765625 0.265625q0.5 0 0.75 -0.265625q0.25 -0.28125 0.25 -0.6875q0 -0.234375 -0.078125 -0.421875q-0.0625 -0.1875 -0.203125 -0.328125q-0.125 -0.109375 -0.3125 -0.171875q-0.171875 -0.078125 -0.40625 -0.078125q-0.25 0 -0.4375 0.078125q-0.171875 0.0625 -0.296875 0.171875q-0.140625 0.140625 -0.21875 0.34375q-0.0625 0.1875 -0.0625 0.40625zm9.820679 11.0625l5.953125 -7.28125l0 -1.203125l-8.015625 0l0 1.390625l5.796875 0l-5.890625 7.234375l0 1.234375l8.4375 0l0 -1.375l-6.28125 0zm13.523682 1.5625q1.4375 0 2.421875 -0.578125q0.984375 -0.578125 1.46875 -1.328125l-1.03125 -0.796875q-0.46875 0.59375 -1.171875 0.96875q-0.6875 0.359375 -1.59375 0.359375q-0.6875 0 -1.25 -0.25q-0.5625 -0.265625 -0.96875 -0.71875q-0.390625 -0.40625 -0.609375 -0.953125q-0.21875 -0.546875 -0.28125 -1.265625l0 -0.078125l7.03125 0l0 -0.75q0 -1.03125 -0.265625 -1.90625q-0.25 -0.890625 -0.78125 -1.546875q-0.53125 -0.640625 -1.328125 -1.0q-0.796875 -0.375 -1.859375 -0.375q-0.84375 0 -1.65625 0.34375q-0.796875 0.34375 -1.4375 0.984375q-0.625 0.65625 -1.015625 1.609375q-0.375 0.9375 -0.375 2.125l0 0.390625q0 1.03125 0.34375 1.90625q0.34375 0.875 0.96875 1.5q0.609375 0.640625 1.484375 1.0q0.875 0.359375 1.90625 0.359375zm-0.21875 -8.84375q0.65625 0 1.125 0.234375q0.46875 0.234375 0.765625 0.625q0.3125 0.375 0.484375 0.90625q0.171875 0.515625 0.171875 0.984375l0 0.078125l-5.296875 0q0.09375 -0.6875 0.34375 -1.203125q0.265625 -0.53125 0.625 -0.890625q0.359375 -0.359375 0.8125 -0.546875q0.453125 -0.1875 0.96875 -0.1875z" fill-rule="nonzero"/><path fill="#434343" d="m1549.303 99.898476l1.703125 0l0 -8.546875l3.796875 0l0 -1.3125l-3.796875 0l0 -0.6875q0 -0.625 0.15625 -1.078125q0.15625 -0.46875 0.46875 -0.765625q0.296875 -0.28125 0.734375 -0.421875q0.4375 -0.140625 1.015625 -0.140625q0.5625 0 1.0625 0.09375q0.5 0.09375 0.875 0.21875l0.1875 -1.390625q-0.234375 -0.0625 -0.46875 -0.109375q-0.21875 -0.046875 -0.453125 -0.09375q-0.34375 -0.0625 -0.703125 -0.109375q-0.34375 -0.046875 -0.703125 -0.046875q-0.875 0 -1.59375 0.25q-0.703125 0.25 -1.203125 0.734375q-0.515625 0.484375 -0.796875 1.203125q-0.28125 0.703125 -0.28125 1.65625l0 0.6875l-2.703125 0l0 1.3125l2.703125 0l0 8.546875zm8.945557 -14.0l0 1.46875l3.359375 0l0 11.078125l-3.359375 0l0 1.453125l8.265625 0l0 -1.453125l-3.21875 0l0 -12.546875l-5.046875 0zm17.414307 14.0l1.75 0l0 -0.140625q-0.15625 -0.421875 -0.25 -0.96875q-0.09375 -0.546875 -0.09375 -1.046875l0 -4.578125q0 -0.828125 -0.296875 -1.4375q-0.296875 -0.625 -0.8125 -1.046875q-0.53125 -0.40625 -1.25 -0.609375q-0.71875 -0.203125 -1.5625 -0.203125q-0.921875 0 -1.65625 0.25q-0.71875 0.25 -1.21875 0.65625q-0.5 0.421875 -0.78125 0.953125q-0.265625 0.515625 -0.265625 1.046875l1.6875 0q0 -0.3125 0.140625 -0.59375q0.15625 -0.28125 0.4375 -0.5q0.265625 -0.203125 0.65625 -0.328125q0.40625 -0.140625 0.90625 -0.140625q0.546875 0 0.96875 0.140625q0.4375 0.140625 0.734375 0.390625q0.296875 0.25 0.453125 0.609375q0.171875 0.34375 0.171875 0.796875l0 0.78125l-1.828125 0q-1.03125 0 -1.875 0.203125q-0.828125 0.1875 -1.421875 0.59375q-0.59375 0.40625 -0.921875 1.015625q-0.3125 0.609375 -0.3125 1.421875q0 0.625 0.234375 1.15625q0.25 0.53125 0.6875 0.90625q0.4375 0.40625 1.0625 0.640625q0.640625 0.21875 1.4375 0.21875q0.46875 0 0.890625 -0.109375q0.4375 -0.09375 0.828125 -0.265625q0.375 -0.171875 0.6875 -0.390625q0.3125 -0.234375 0.5625 -0.5q0.03125 0.3125 0.09375 0.609375q0.0625 0.28125 0.15625 0.46875zm-2.984375 -1.28125q-0.484375 0 -0.859375 -0.125q-0.375 -0.140625 -0.625 -0.359375q-0.234375 -0.21875 -0.359375 -0.53125q-0.125 -0.3125 -0.125 -0.671875q0 -0.390625 0.140625 -0.6875q0.140625 -0.296875 0.40625 -0.515625q0.390625 -0.3125 1.03125 -0.453125q0.65625 -0.15625 1.53125 -0.15625l1.5625 0l0 2.0q-0.140625 0.28125 -0.40625 0.5625q-0.25 0.265625 -0.59375 0.46875q-0.34375 0.203125 -0.78125 0.34375q-0.421875 0.125 -0.921875 0.125zm7.3986816 -3.734375l0 0.203125q0 1.046875 0.265625 1.96875q0.28125 0.90625 0.78125 1.59375q0.5 0.671875 1.234375 1.0625q0.734375 0.375 1.625 0.375q0.546875 0 1.0 -0.125q0.46875 -0.109375 0.859375 -0.3125q0.234375 -0.140625 0.453125 -0.3125q0.21875 -0.1875 0.40625 -0.40625l0 0.84375q0 0.640625 -0.1875 1.125q-0.171875 0.5 -0.515625 0.828125q-0.34375 0.328125 -0.828125 0.5q-0.484375 0.171875 -1.078125 0.171875q-0.34375 0 -0.6875 -0.0625q-0.328125 -0.0625 -0.671875 -0.21875q-0.328125 -0.15625 -0.65625 -0.421875q-0.328125 -0.25 -0.640625 -0.625l-0.875 1.0q0.34375 0.484375 0.8125 0.8125q0.46875 0.328125 0.96875 0.515625q0.5 0.203125 0.984375 0.28125q0.5 0.09375 0.890625 0.09375q0.921875 0 1.6875 -0.28125q0.765625 -0.265625 1.328125 -0.78125q0.546875 -0.53125 0.84375 -1.296875q0.3125 -0.75 0.3125 -1.71875l0 -9.65625l-1.53125 0l-0.078125 1.078125q-0.171875 -0.21875 -0.375 -0.390625q-0.1875 -0.1875 -0.40625 -0.328125q-0.40625 -0.265625 -0.90625 -0.390625q-0.5 -0.140625 -1.09375 -0.140625q-0.90625 0 -1.640625 0.375q-0.734375 0.359375 -1.234375 1.03125q-0.515625 0.65625 -0.78125 1.59375q-0.265625 0.921875 -0.265625 2.015625zm1.671875 0.203125l0 -0.203125q0 -0.71875 0.15625 -1.359375q0.15625 -0.65625 0.484375 -1.15625q0.3125 -0.5 0.8125 -0.78125q0.515625 -0.296875 1.21875 -0.296875q0.421875 0 0.765625 0.109375q0.34375 0.09375 0.625 0.28125q0.296875 0.1875 0.515625 0.453125q0.21875 0.25 0.375 0.5625l0 4.515625q-0.15625 0.3125 -0.375 0.578125q-0.21875 0.265625 -0.5 0.453125q-0.28125 0.203125 -0.640625 0.3125q-0.34375 0.09375 -0.78125 0.09375q-0.703125 0 -1.203125 -0.28125q-0.5 -0.296875 -0.8125 -0.78125q-0.328125 -0.5 -0.484375 -1.140625q-0.15625 -0.640625 -0.15625 -1.359375zm16.383179 2.203125q0 0.234375 -0.09375 0.453125q-0.09375 0.203125 -0.265625 0.375q-0.28125 0.28125 -0.78125 0.4375q-0.5 0.15625 -1.171875 0.15625q-0.4375 0 -0.875 -0.078125q-0.4375 -0.09375 -0.796875 -0.3125q-0.359375 -0.21875 -0.609375 -0.578125q-0.234375 -0.359375 -0.265625 -0.875l-1.6875 0q0 0.625 0.28125 1.21875q0.296875 0.578125 0.84375 1.015625q0.53125 0.4375 1.3125 0.71875q0.78125 0.265625 1.796875 0.265625q0.875 0 1.609375 -0.203125q0.734375 -0.21875 1.265625 -0.609375q0.53125 -0.375 0.8125 -0.90625q0.296875 -0.546875 0.296875 -1.203125q0 -0.609375 -0.265625 -1.0625q-0.25 -0.46875 -0.734375 -0.828125q-0.5 -0.34375 -1.21875 -0.59375q-0.71875 -0.25 -1.625 -0.453125q-0.6875 -0.125 -1.140625 -0.265625q-0.453125 -0.15625 -0.71875 -0.34375q-0.28125 -0.171875 -0.390625 -0.40625q-0.109375 -0.234375 -0.109375 -0.515625q0 -0.28125 0.140625 -0.546875q0.140625 -0.265625 0.40625 -0.46875q0.265625 -0.203125 0.671875 -0.3125q0.40625 -0.125 0.953125 -0.125q0.515625 0 0.921875 0.15625q0.421875 0.140625 0.71875 0.375q0.28125 0.234375 0.4375 0.546875q0.171875 0.296875 0.171875 0.625l1.6875 0q0 -0.65625 -0.28125 -1.21875q-0.265625 -0.5625 -0.78125 -0.96875q-0.515625 -0.421875 -1.25 -0.65625q-0.71875 -0.234375 -1.625 -0.234375q-0.859375 0 -1.5625 0.234375q-0.703125 0.21875 -1.21875 0.609375q-0.5 0.390625 -0.78125 0.921875q-0.28125 0.515625 -0.28125 1.109375q0 0.609375 0.265625 1.078125q0.28125 0.453125 0.78125 0.796875q0.484375 0.34375 1.171875 0.59375q0.703125 0.234375 1.5625 0.421875q0.6875 0.125 1.140625 0.296875q0.46875 0.171875 0.75 0.375q0.28125 0.203125 0.40625 0.4375q0.125 0.234375 0.125 0.546875z" fill-rule="nonzero"/><path fill="#434343" d="m1277.5597 136.41615l0 -3.109375q0 -1.265625 -0.296875 -2.234375q-0.28125 -0.984375 -0.828125 -1.65625q-0.5625 -0.671875 -1.359375 -1.015625q-0.796875 -0.359375 -1.8125 -0.359375q-1.015625 0 -1.8125 0.359375q-0.796875 0.34375 -1.34375 1.015625q-0.546875 0.671875 -0.84375 1.65625q-0.28125 0.96875 -0.28125 2.234375l0 3.109375q0 1.265625 0.28125 2.25q0.296875 0.984375 0.84375 1.640625q0.5625 0.6875 1.359375 1.03125q0.8125 0.34375 1.8125 0.34375q1.03125 0 1.8125 -0.34375q0.796875 -0.359375 1.34375 -1.03125q0.546875 -0.65625 0.828125 -1.640625q0.296875 -0.984375 0.296875 -2.25zm-6.890625 -0.328125q0 -0.234375 0 -0.46875q0 -0.234375 0 -0.453125l0 -2.21875q0 -0.9375 0.1875 -1.640625q0.1875 -0.703125 0.5625 -1.15625q0.328125 -0.359375 0.78125 -0.53125q0.46875 -0.1875 1.0625 -0.1875q0.59375 0 1.046875 0.171875q0.453125 0.171875 0.765625 0.515625q0.3125 0.328125 0.5 0.84375q0.1875 0.5 0.265625 1.15625l-5.171875 3.96875zm5.203125 0.6875q0 0.96875 -0.203125 1.6875q-0.1875 0.71875 -0.609375 1.171875q-0.3125 0.328125 -0.765625 0.5q-0.4375 0.171875 -1.015625 0.171875q-0.546875 0 -0.984375 -0.15625q-0.4375 -0.15625 -0.734375 -0.46875q-0.34375 -0.328125 -0.5625 -0.828125q-0.203125 -0.515625 -0.28125 -1.171875l5.15625 -3.953125q0 0.265625 0 0.65625q0 0.375 0 0.515625l0 1.875zm8.633057 -1.484375l-2.609375 -3.65625l-1.9375 0l3.65625 4.875l-3.765625 4.984375l1.96875 0l2.71875 -3.75l2.734375 3.75l1.9375 0l-3.765625 -4.984375l3.671875 -4.875l-1.96875 0l-2.640625 3.65625zm15.445679 1.125l0 -3.109375q0 -1.265625 -0.296875 -2.234375q-0.28125 -0.984375 -0.828125 -1.65625q-0.5625 -0.671875 -1.359375 -1.015625q-0.796875 -0.359375 -1.8125 -0.359375q-1.015625 0 -1.8125 0.359375q-0.796875 0.34375 -1.34375 1.015625q-0.546875 0.671875 -0.84375 1.65625q-0.28125 0.96875 -0.28125 2.234375l0 3.109375q0 1.265625 0.28125 2.25q0.296875 0.984375 0.84375 1.640625q0.5625 0.6875 1.359375 1.03125q0.8125 0.34375 1.8125 0.34375q1.03125 0 1.8125 -0.34375q0.796875 -0.359375 1.34375 -1.03125q0.546875 -0.65625 0.828125 -1.640625q0.296875 -0.984375 0.296875 -2.25zm-6.890625 -0.328125q0 -0.234375 0 -0.46875q0 -0.234375 0 -0.453125l0 -2.21875q0 -0.9375 0.1875 -1.640625q0.1875 -0.703125 0.5625 -1.15625q0.328125 -0.359375 0.78125 -0.53125q0.46875 -0.1875 1.0625 -0.1875q0.59375 0 1.046875 0.171875q0.453125 0.171875 0.765625 0.515625q0.3125 0.328125 0.5 0.84375q0.1875 0.5 0.265625 1.15625l-5.171875 3.96875zm5.203125 0.6875q0 0.96875 -0.203125 1.6875q-0.1875 0.71875 -0.609375 1.171875q-0.3125 0.328125 -0.765625 0.5q-0.4375 0.171875 -1.015625 0.171875q-0.546875 0 -0.984375 -0.15625q-0.4375 -0.15625 -0.734375 -0.46875q-0.34375 -0.328125 -0.5625 -0.828125q-0.203125 -0.515625 -0.28125 -1.171875l5.15625 -3.953125q0 0.265625 0 0.65625q0 0.375 0 0.515625l0 1.875zm12.883057 -0.359375l0 -3.109375q0 -1.265625 -0.296875 -2.234375q-0.28125 -0.984375 -0.828125 -1.65625q-0.5625 -0.671875 -1.359375 -1.015625q-0.796875 -0.359375 -1.8125 -0.359375q-1.015625 0 -1.8125 0.359375q-0.796875 0.34375 -1.34375 1.015625q-0.546875 0.671875 -0.84375 1.65625q-0.28125 0.96875 -0.28125 2.234375l0 3.109375q0 1.265625 0.28125 2.25q0.296875 0.984375 0.84375 1.640625q0.5625 0.6875 1.359375 1.03125q0.8125 0.34375 1.8125 0.34375q1.03125 0 1.8125 -0.34375q0.796875 -0.359375 1.34375 -1.03125q0.546875 -0.65625 0.828125 -1.640625q0.296875 -0.984375 0.296875 -2.25zm-6.890625 -0.328125q0 -0.234375 0 -0.46875q0 -0.234375 0 -0.453125l0 -2.21875q0 -0.9375 0.1875 -1.640625q0.1875 -0.703125 0.5625 -1.15625q0.328125 -0.359375 0.78125 -0.53125q0.46875 -0.1875 1.0625 -0.1875q0.59375 0 1.046875 0.171875q0.453125 0.171875 0.765625 0.515625q0.3125 0.328125 0.5 0.84375q0.1875 0.5 0.265625 1.15625l-5.171875 3.96875zm5.203125 0.6875q0 0.96875 -0.203125 1.6875q-0.1875 0.71875 -0.609375 1.171875q-0.3125 0.328125 -0.765625 0.5q-0.4375 0.171875 -1.015625 0.171875q-0.546875 0 -0.984375 -0.15625q-0.4375 -0.15625 -0.734375 -0.46875q-0.34375 -0.328125 -0.5625 -0.828125q-0.203125 -0.515625 -0.28125 -1.171875l5.15625 -3.953125q0 0.265625 0 0.65625q0 0.375 0 0.515625l0 1.875z" fill-rule="nonzero"/><path fill="#000000" fill-opacity="0.0" d="m805.7572 114.15879l0 0l0 -78.23622l177.63782 0" fill-rule="evenodd"/><path stroke="#434343" stroke-width="1.0" stroke-linejoin="round" stroke-linecap="butt" d="m805.7572 114.15879l0 0l0 -78.23622l177.63782 0" fill-rule="evenodd"/><path fill="#000000" fill-opacity="0.0" d="m983.395 35.922573l157.51624 0l0 53.92126l35.96411 0" fill-rule="evenodd"/><path stroke="#434343" stroke-width="1.0" stroke-linejoin="round" stroke-linecap="butt" d="m983.395 35.922573l157.51611 0l0 53.92126l29.964233 0" fill-rule="evenodd"/><path fill="#434343" stroke="#434343" stroke-width="1.0" stroke-linecap="butt" d="m1170.8754 91.49557l4.538086 -1.6517334l-4.538086 -1.6517334z" fill-rule="evenodd"/><path fill="#000000" fill-opacity="0.0" d="m83.46588 68.843834l0 21.007874l102.01575 0" fill-rule="evenodd"/><path stroke="#666666" stroke-width="1.0" stroke-linejoin="round" stroke-linecap="butt" d="m83.46588 68.843834l0 21.007874l96.01575 0" fill-rule="evenodd"/><path fill="#666666" stroke="#666666" stroke-width="1.0" stroke-linecap="butt" d="m179.48163 91.50344l4.538101 -1.6517334l-4.538101 -1.6517334z" fill-rule="evenodd"/><path fill="#efefef" d="m20.961943 26.828083l125.00787 0l0 42.01575l-125.00787 0z" fill-rule="evenodd"/><path stroke="#666666" stroke-width="1.0" stroke-linejoin="round" stroke-linecap="butt" d="m20.961943 26.828083l125.00787 0l0 42.01575l-125.00787 0z" fill-rule="evenodd"/><path fill="#434343" d="m70.98099 48.669956l0 -3.109375q0 -1.265625 -0.296875 -2.234375q-0.28125 -0.984375 -0.828125 -1.65625q-0.5625 -0.671875 -1.359375 -1.015625q-0.796875 -0.359375 -1.8125 -0.359375q-1.015625 0 -1.8125 0.359375q-0.796875 0.34375 -1.3437538 1.015625q-0.546875 0.671875 -0.84375 1.65625q-0.28125 0.96875 -0.28125 2.234375l0 3.109375q0 1.265625 0.28125 2.25q0.296875 0.984375 0.84375 1.640625q0.5625038 0.6875 1.3593788 1.03125q0.8125 0.34375 1.8125 0.34375q1.03125 0 1.8125 -0.34375q0.796875 -0.359375 1.34375 -1.03125q0.546875 -0.65625 0.828125 -1.640625q0.296875 -0.984375 0.296875 -2.25zm-6.890625 -0.328125q0 -0.234375 0 -0.46875q0 -0.234375 0 -0.453125l0 -2.21875q0 -0.9375 0.1875 -1.640625q0.1875 -0.703125 0.5625 -1.15625q0.328125 -0.359375 0.78125 -0.53125q0.46875 -0.1875 1.0625 -0.1875q0.59375 0 1.046875 0.171875q0.453125 0.171875 0.765625 0.515625q0.3125 0.328125 0.5 0.84375q0.1875 0.5 0.265625 1.15625l-5.171875 3.96875zm5.203125 0.6875q0 0.96875 -0.203125 1.6875q-0.1875 0.71875 -0.609375 1.171875q-0.3125 0.328125 -0.765625 0.5q-0.4375 0.171875 -1.015625 0.171875q-0.546875 0 -0.984375 -0.15625q-0.4375 -0.15625 -0.734375 -0.46875q-0.34375 -0.328125 -0.5625 -0.828125q-0.203125 -0.515625 -0.28125 -1.171875l5.15625 -3.953125q0 0.265625 0 0.65625q0 0.375 0 0.515625l0 1.875zm8.633072 -1.484375l-2.609375 -3.65625l-1.9375 0l3.65625 4.875l-3.765625 4.984375l1.96875 0l2.71875 -3.75l2.734375 3.75l1.9375 0l-3.765625 -4.984375l3.671875 -4.875l-1.96875 0l-2.640625 3.65625zm15.258072 6.203125l0 -1.375l-6.65625 0l3.5625 -3.859375q0.5 -0.546875 0.953125 -1.09375q0.453125 -0.5625 0.796875 -1.125q0.328125 -0.5625 0.53125 -1.140625q0.203125 -0.578125 0.203125 -1.171875q0 -0.796875 -0.28125 -1.46875q-0.28125 -0.671875 -0.796875 -1.15625q-0.515625 -0.5 -1.265625 -0.78125q-0.75 -0.28125 -1.6875 -0.28125q-1.03125 0 -1.828125 0.328125q-0.796875 0.328125 -1.34375 0.890625q-0.546875 0.5625 -0.84375 1.3125q-0.28125 0.734375 -0.28125 1.5625l1.6875 0q0 -0.609375 0.15625 -1.109375q0.15625 -0.515625 0.484375 -0.859375q0.328125 -0.34375 0.8125 -0.53125q0.484375 -0.203125 1.15625 -0.203125q0.546875 0 0.96875 0.1875q0.4375 0.1875 0.75 0.5q0.296875 0.328125 0.453125 0.765625q0.171875 0.421875 0.171875 0.921875q0 0.390625 -0.109375 0.78125q-0.09375 0.375 -0.328125 0.796875q-0.25 0.421875 -0.640625 0.921875q-0.390625 0.5 -0.96875 1.140625l-4.34375 4.828125l0 1.21875l8.6875 0zm11.383072 -5.078125l0 -3.109375q0 -1.265625 -0.296875 -2.234375q-0.28125 -0.984375 -0.828125 -1.65625q-0.5625 -0.671875 -1.359375 -1.015625q-0.796875 -0.359375 -1.8125 -0.359375q-1.015625 0 -1.8125 0.359375q-0.796875 0.34375 -1.34375 1.015625q-0.546875 0.671875 -0.84375 1.65625q-0.28125 0.96875 -0.28125 2.234375l0 3.109375q0 1.265625 0.28125 2.25q0.296875 0.984375 0.84375 1.640625q0.5625 0.6875 1.359375 1.03125q0.8125 0.34375 1.8125 0.34375q1.03125 0 1.8125 -0.34375q0.796875 -0.359375 1.34375 -1.03125q0.546875 -0.65625 0.828125 -1.640625q0.296875 -0.984375 0.296875 -2.25zm-6.890625 -0.328125q0 -0.234375 0 -0.46875q0 -0.234375 0 -0.453125l0 -2.21875q0 -0.9375 0.1875 -1.640625q0.1875 -0.703125 0.5625 -1.15625q0.328125 -0.359375 0.78125 -0.53125q0.46875 -0.1875 1.0625 -0.1875q0.59375 0 1.046875 0.171875q0.453125 0.171875 0.765625 0.515625q0.3125 0.328125 0.5 0.84375q0.1875 0.5 0.265625 1.15625l-5.171875 3.96875zm5.203125 0.6875q0 0.96875 -0.203125 1.6875q-0.1875 0.71875 -0.609375 1.171875q-0.3125 0.328125 -0.765625 0.5q-0.4375 0.171875 -1.015625 0.171875q-0.546875 0 -0.984375 -0.15625q-0.4375 -0.15625 -0.734375 -0.46875q-0.34375 -0.328125 -0.5625 -0.828125q-0.203125 -0.515625 -0.28125 -1.171875l5.15625 -3.953125q0 0.265625 0 0.65625q0 0.375 0 0.515625l0 1.875z" fill-rule="nonzero"/><path fill="#000000" fill-opacity="0.0" d="m185.48163 26.828083l76.0 0l0 42.01575l-76.0 0z" fill-rule="evenodd"/><path fill="#434343" d="m197.74725 45.357456l0 -5.609375l-1.6875 0l0 14.0l1.6875 0l0 -7.15625q0.1875 -0.296875 0.421875 -0.53125q0.234375 -0.25 0.5 -0.421875q0.34375 -0.25 0.75 -0.375q0.421875 -0.125 0.875 -0.125q0.5625 -0.015625 0.984375 0.15625q0.421875 0.15625 0.703125 0.46875q0.265625 0.296875 0.40625 0.734375q0.140625 0.4375 0.140625 1.03125l0 6.21875l1.6875 0l0 -6.203125q0 -1.0 -0.25 -1.71875q-0.234375 -0.71875 -0.6875 -1.203125q-0.4375 -0.46875 -1.078125 -0.6875q-0.625 -0.21875 -1.40625 -0.21875q-0.59375 0 -1.125 0.171875q-0.515625 0.15625 -0.953125 0.484375q-0.265625 0.1875 -0.515625 0.4375q-0.25 0.25 -0.453125 0.546875zm13.867447 8.578125q1.4375 0 2.421875 -0.578125q0.984375 -0.578125 1.46875 -1.328125l-1.03125 -0.796875q-0.46875 0.59375 -1.171875 0.96875q-0.6875 0.359375 -1.59375 0.359375q-0.6875 0 -1.25 -0.25q-0.5625 -0.265625 -0.96875 -0.71875q-0.390625 -0.40625 -0.609375 -0.953125q-0.21875 -0.546875 -0.28125 -1.265625l0 -0.078125l7.03125 0l0 -0.75q0 -1.03125 -0.265625 -1.90625q-0.25 -0.890625 -0.78125 -1.546875q-0.53125 -0.640625 -1.328125 -1.0q-0.796875 -0.375 -1.859375 -0.375q-0.84375 0 -1.65625 0.34375q-0.796875 0.34375 -1.4375 0.984375q-0.625 0.65625 -1.015625 1.609375q-0.375 0.9375 -0.375 2.125l0 0.390625q0 1.03125 0.34375 1.90625q0.34375 0.875 0.96875 1.5q0.609375 0.640625 1.484375 1.0q0.875 0.359375 1.90625 0.359375zm-0.21875 -8.84375q0.65625 0 1.125 0.234375q0.46875 0.234375 0.765625 0.625q0.3125 0.375 0.484375 0.90625q0.171875 0.515625 0.171875 0.984375l0 0.078125l-5.296875 0q0.09375 -0.6875 0.34375 -1.203125q0.265625 -0.53125 0.625 -0.890625q0.359375 -0.359375 0.8125 -0.546875q0.453125 -0.1875 0.96875 -0.1875zm13.539322 8.65625l1.75 0l0 -0.140625q-0.15625 -0.421875 -0.25 -0.96875q-0.09375 -0.546875 -0.09375 -1.046875l0 -4.578125q0 -0.828125 -0.296875 -1.4375q-0.296875 -0.625 -0.8125 -1.046875q-0.53125 -0.40625 -1.25 -0.609375q-0.71875 -0.203125 -1.5625 -0.203125q-0.921875 0 -1.65625 0.25q-0.71875 0.25 -1.21875 0.65625q-0.5 0.421875 -0.78125 0.953125q-0.265625 0.515625 -0.265625 1.046875l1.6875 0q0 -0.3125 0.140625 -0.59375q0.15625 -0.28125 0.4375 -0.5q0.265625 -0.203125 0.65625 -0.328125q0.40625 -0.140625 0.90625 -0.140625q0.546875 0 0.96875 0.140625q0.4375 0.140625 0.734375 0.390625q0.296875 0.25 0.453125 0.609375q0.171875 0.34375 0.171875 0.796875l0 0.78125l-1.828125 0q-1.03125 0 -1.875 0.203125q-0.828125 0.1875 -1.421875 0.59375q-0.59375 0.40625 -0.921875 1.015625q-0.3125 0.609375 -0.3125 1.421875q0 0.625 0.234375 1.15625q0.25 0.53125 0.6875 0.90625q0.4375 0.40625 1.0625 0.640625q0.640625 0.21875 1.4375 0.21875q0.46875 0 0.890625 -0.109375q0.4375 -0.09375 0.828125 -0.265625q0.375 -0.171875 0.6875 -0.390625q0.3125 -0.234375 0.5625 -0.5q0.03125 0.3125 0.09375 0.609375q0.0625 0.28125 0.15625 0.46875zm-2.984375 -1.28125q-0.484375 0 -0.859375 -0.125q-0.375 -0.140625 -0.625 -0.359375q-0.234375 -0.21875 -0.359375 -0.53125q-0.125 -0.3125 -0.125 -0.671875q0 -0.390625 0.140625 -0.6875q0.140625 -0.296875 0.40625 -0.515625q0.390625 -0.3125 1.03125 -0.453125q0.65625 -0.15625 1.53125 -0.15625l1.5625 0l0 2.0q-0.140625 0.28125 -0.40625 0.5625q-0.25 0.265625 -0.59375 0.46875q-0.34375 0.203125 -0.78125 0.34375q-0.421875 0.125 -0.921875 0.125zm7.383072 -3.734375l0 0.203125q0 1.046875 0.28125 1.96875q0.28125 0.90625 0.796875 1.59375q0.5 0.671875 1.21875 1.0625q0.734375 0.375 1.625 0.375q0.921875 0 1.59375 -0.3125q0.6875 -0.3125 1.1875 -0.90625l0.0625 1.03125l1.546875 0l0 -14.0l-1.6875 0l0 5.125q-0.46875 -0.578125 -1.140625 -0.859375q-0.65625 -0.296875 -1.546875 -0.296875q-0.890625 0 -1.625 0.375q-0.734375 0.359375 -1.234375 1.03125q-0.515625 0.65625 -0.796875 1.59375q-0.28125 0.921875 -0.28125 2.015625zm1.6875 0.203125l0 -0.203125q0 -0.71875 0.15625 -1.359375q0.15625 -0.65625 0.484375 -1.15625q0.3125 -0.5 0.8125 -0.78125q0.515625 -0.296875 1.21875 -0.296875q0.828125 0 1.375 0.390625q0.5625 0.390625 0.890625 0.984375l0 4.578125q-0.328125 0.640625 -0.890625 1.03125q-0.546875 0.375 -1.390625 0.375q-0.703125 0 -1.203125 -0.28125q-0.5 -0.296875 -0.8125 -0.78125q-0.328125 -0.5 -0.484375 -1.140625q-0.15625 -0.640625 -0.15625 -1.359375z" fill-rule="nonzero"/></g></svg>