<svg version="1.1" viewBox="0.0 0.0 856.6614173228346 555.6719160104986" fill="none" stroke="none" stroke-linecap="square" stroke-miterlimit="10" xmlns:xlink="http://www.w3.org/1999/xlink" xmlns="http://www.w3.org/2000/svg"><clipPath id="p.0"><path d="m0 0l856.66144 0l0 555.67194l-856.66144 0l0 -555.67194z" clip-rule="nonzero"/></clipPath><g clip-path="url(#p.0)"><path fill="#cccccc" d="m0 0l856.66144 0l0 555.67194l-856.66144 0z" fill-rule="evenodd"/><path shape-rendering="crispEdges" fill="#f3f3f3" d="m51.144356 35.683727l154.34909 0l0 60.53806l-154.34909 0l0 -60.53806z" fill-rule="nonzero"/><path shape-rendering="crispEdges" fill="#f3f3f3" d="m205.49344 35.683727l154.34909 0l0 60.53806l-154.34909 0l0 -60.53806z" fill-rule="nonzero"/><path shape-rendering="crispEdges" fill="#f3f3f3" d="m359.84253 35.683727l323.7743 0l0 60.53806l-323.7743 0l0 -60.53806z" fill-rule="nonzero"/><path shape-rendering="crispEdges" fill="#f3f3f3" d="m683.6168 35.683727l121.90027 0l0 60.53806l-121.90027 0l0 -60.53806z" fill-rule="nonzero"/><path shape-rendering="crispEdges" fill="#f3f3f3" d="m51.144356 96.22179l308.69818 0l0 60.538055l-308.69818 0l0 -60.538055z" fill-rule="nonzero"/><path shape-rendering="crispEdges" fill="#f3f3f3" d="m359.84253 96.22179l445.67456 0l0 60.538055l-445.67456 0l0 -60.538055z" fill-rule="nonzero"/><path shape-rendering="crispEdges" fill="#f3f3f3" d="m51.144356 156.75984l308.69818 0l0 60.538055l-308.69818 0l0 -60.538055z" fill-rule="nonzero"/><path shape-rendering="crispEdges" fill="#f3f3f3" d="m359.84253 156.75984l445.67456 0l0 60.538055l-445.67456 0l0 -60.538055z" fill-rule="nonzero"/><path shape-rendering="crispEdges" fill="#f3f3f3" d="m51.144356 217.2979l308.69818 0l0 60.53807l-308.69818 0l0 -60.53807z" fill-rule="nonzero"/><path shape-rendering="crispEdges" fill="#f3f3f3" d="m359.84253 217.2979l445.67456 0l0 60.53807l-445.67456 0l0 -60.53807z" fill-rule="nonzero"/><path shape-rendering="crispEdges" fill="#f3f3f3" d="m51.144356 277.83597l308.69818 0l0 60.538055l-308.69818 0l0 -60.538055z" fill-rule="nonzero"/><path shape-rendering="crispEdges" fill="#f3f3f3" d="m359.84253 277.83597l445.67456 0l0 60.538055l-445.67456 0l0 -60.538055z" fill-rule="nonzero"/><path shape-rendering="crispEdges" fill="#f3f3f3" d="m51.144356 338.37402l308.69818 0l0 60.538055l-308.69818 0l0 -60.538055z" fill-rule="nonzero"/><path shape-rendering="crispEdges" fill="#f3f3f3" d="m359.84253 338.37402l445.67456 0l0 60.538055l-445.67456 0l0 -60.538055z" fill-rule="nonzero"/><path shape-rendering="crispEdges" fill="#f3f3f3" d="m51.144356 398.91208l308.69818 0l0 60.538055l-308.69818 0l0 -60.538055z" fill-rule="nonzero"/><path shape-rendering="crispEdges" fill="#f3f3f3" d="m359.84253 398.91208l445.67456 0l0 60.538055l-445.67456 0l0 -60.538055z" fill-rule="nonzero"/><path shape-rendering="crispEdges" fill="#f3f3f3" d="m51.144356 459.45013l308.69818 0l0 60.538025l-308.69818 0l0 -60.538025z" fill-rule="nonzero"/><path shape-rendering="crispEdges" fill="#f3f3f3" d="m359.84253 459.45013l445.67456 0l0 60.538025l-445.67456 0l0 -60.538025z" fill-rule="nonzero"/><path stroke="#999999" stroke-width="2.0" stroke-linecap="butt" d="m51.144356 34.683727l0 486.30444" fill-rule="nonzero"/><path stroke="#999999" stroke-width="2.0" stroke-linecap="butt" d="m205.49344 34.683727l0 62.53806" fill-rule="nonzero"/><path stroke="#999999" stroke-width="2.0" stroke-linecap="butt" d="m359.84253 34.683727l0 486.30444" fill-rule="nonzero"/><path stroke="#999999" stroke-width="2.0" stroke-linecap="butt" d="m683.6168 34.683727l0 62.53806" fill-rule="nonzero"/><path stroke="#999999" stroke-width="2.0" stroke-linecap="butt" d="m805.5171 34.683727l0 486.30444" fill-rule="nonzero"/><path stroke="#999999" stroke-width="2.0" stroke-linecap="butt" d="m50.144356 35.683727l756.37274 0" fill-rule="nonzero"/><path stroke="#999999" stroke-width="2.0" stroke-linecap="butt" d="m50.144356 96.22179l756.37274 0" fill-rule="nonzero"/><path stroke="#999999" stroke-width="2.0" stroke-linecap="butt" d="m50.144356 156.75984l756.37274 0" fill-rule="nonzero"/><path stroke="#999999" stroke-width="2.0" stroke-linecap="butt" d="m50.144356 217.2979l756.37274 0" fill-rule="nonzero"/><path stroke="#999999" stroke-width="2.0" stroke-linecap="butt" d="m50.144356 277.83597l756.37274 0" fill-rule="nonzero"/><path stroke="#999999" stroke-width="2.0" stroke-linecap="butt" d="m50.144356 338.37402l756.37274 0" fill-rule="nonzero"/><path stroke="#999999" stroke-width="2.0" stroke-linecap="butt" d="m50.144356 398.91208l756.37274 0" fill-rule="nonzero"/><path stroke="#999999" stroke-width="2.0" stroke-linecap="butt" d="m50.144356 459.45013l756.37274 0" fill-rule="nonzero"/><path stroke="#999999" stroke-width="2.0" stroke-linecap="butt" d="m50.144356 519.98816l756.37274 0" fill-rule="nonzero"/><path fill="#000000" d="m84.357956 60.566505l-2.59375 0l0 16.90625l2.75 0l0 -13.453125q0.09375 -0.25 0.234375 -0.46875q0.15625 -0.21875 0.359375 -0.390625q0.265625 -0.21875 0.640625 -0.328125q0.390625 -0.125 0.90625 -0.125q0.46875 0 0.8125 0.125q0.359375 0.109375 0.59375 0.359375q0.25 0.265625 0.359375 0.671875q0.125 0.40625 0.125 0.9375l0 12.671875l2.75 0l0 -12.65625q0 -0.09375 0 -0.15625q0 -0.078125 0 -0.15625q0.046875 -0.390625 0.1875 -0.703125q0.140625 -0.328125 0.390625 -0.578125q0.25 -0.234375 0.625 -0.375q0.375 -0.140625 0.890625 -0.140625q0.484375 0 0.84375 0.125q0.375 0.125 0.625 0.375q0.234375 0.265625 0.359375 0.671875q0.125 0.40625 0.125 0.9375l0 12.65625l2.75 0l0 -12.625q0 -1.21875 -0.28125 -2.109375q-0.28125 -0.90625 -0.8125 -1.46875q-0.484375 -0.5 -1.1875 -0.75q-0.703125 -0.265625 -1.578125 -0.265625q-0.640625 0.015625 -1.1875 0.171875q-0.53125 0.15625 -0.96875 0.421875q-0.34375 0.234375 -0.640625 0.546875q-0.296875 0.3125 -0.515625 0.671875q-0.171875 -0.390625 -0.421875 -0.703125q-0.234375 -0.3125 -0.53125 -0.53125q-0.40625 -0.28125 -0.953125 -0.421875q-0.53125 -0.15625 -1.203125 -0.15625q-1.1875 0.015625 -2.03125 0.515625q-0.828125 0.5 -1.34375 1.390625l-0.078125 -1.59375zm29.015625 16.90625l2.625 0l0 -16.90625l-2.90625 0l0 12.125q-0.234375 0.546875 -0.59375 1.015625q-0.34375 0.453125 -0.8125 0.78125q-0.5625 0.40625 -1.328125 0.640625q-0.765625 0.21875 -1.734375 0.21875q-0.828125 0 -1.46875 -0.21875q-0.625 -0.21875 -1.0625 -0.765625q-0.4375 -0.53125 -0.65625 -1.4375q-0.21875 -0.90625 -0.21875 -2.28125l0 -10.078125l-2.890625 0l0 10.046875q0 1.890625 0.40625 3.25q0.421875 1.34375 1.1875 2.21875q0.765625 0.875 1.84375 1.296875q1.078125 0.40625 2.40625 0.40625q1.65625 0 2.921875 -0.6875q1.265625 -0.703125 2.109375 -1.953125l0.171875 2.328125zm14.90625 -21.0l-2.90625 0l0 4.09375l-4.4375 0l0 2.234375l4.4375 0l0 9.1875q0 1.5625 0.40625 2.671875q0.421875 1.09375 1.140625 1.78125q0.71875 0.703125 1.6875 1.03125q0.984375 0.3125 2.109375 0.3125q0.671875 0 1.34375 -0.0625q0.6875 -0.0625 1.296875 -0.1875q0.609375 -0.109375 1.125 -0.265625q0.515625 -0.171875 0.875 -0.390625l-0.40625 -2.046875q-0.265625 0.0625 -0.6875 0.15625q-0.40625 0.078125 -0.875 0.15625q-0.484375 0.078125 -0.984375 0.140625q-0.5 0.046875 -0.96875 0.046875q-0.640625 0 -1.21875 -0.15625q-0.5625 -0.15625 -1.0 -0.546875q-0.4375 -0.375 -0.6875 -1.015625q-0.25 -0.640625 -0.25 -1.625l0 -9.1875l6.4375 0l0 -2.234375l-6.4375 0l0 -4.09375zm19.828125 21.3125q2.46875 0 4.140625 -0.984375q1.6875 -1.0 2.53125 -2.28125l-1.765625 -1.375q-0.796875 1.03125 -2.0 1.65625q-1.203125 0.625 -2.75 0.625q-1.171875 0 -2.140625 -0.4375q-0.96875 -0.4375 -1.65625 -1.203125q-0.671875 -0.71875 -1.0625 -1.65625q-0.375 -0.9375 -0.484375 -2.171875l0 -0.109375l12.078125 0l0 -1.296875q0 -1.765625 -0.453125 -3.28125q-0.4375 -1.515625 -1.34375 -2.640625q-0.90625 -1.109375 -2.28125 -1.734375q-1.359375 -0.640625 -3.1875 -0.640625q-1.453125 0 -2.84375 0.59375q-1.375 0.59375 -2.453125 1.703125q-1.09375 1.125 -1.75 2.75q-0.65625 1.609375 -0.65625 3.65625l0 0.65625q0 1.765625 0.59375 3.265625q0.59375 1.5 1.65625 2.59375q1.0625 1.09375 2.546875 1.703125q1.5 0.609375 3.28125 0.609375zm-0.375 -15.15625q1.109375 0 1.90625 0.40625q0.8125 0.40625 1.34375 1.0625q0.53125 0.65625 0.828125 1.5625q0.296875 0.890625 0.296875 1.671875l0 0.140625l-9.09375 0q0.171875 -1.171875 0.59375 -2.0625q0.4375 -0.90625 1.0625 -1.53125q0.625 -0.609375 1.40625 -0.921875q0.78125 -0.328125 1.65625 -0.328125zm19.09375 4.203125l-4.46875 -6.265625l-3.34375 0l6.296875 8.359375l-6.46875 8.546875l3.375 0l4.671875 -6.4375l4.671875 6.4375l3.34375 0l-6.46875 -8.546875l6.296875 -8.359375l-3.390625 0l-4.515625 6.265625z" fill-rule="nonzero"/><path fill="#000000" d="m241.6914 77.472755l2.90625 0l0 -14.671875l6.515625 0l0 -2.234375l-6.515625 0l0 -1.1875q0 -1.0625 0.265625 -1.859375q0.28125 -0.796875 0.8125 -1.296875q0.5 -0.484375 1.25 -0.71875q0.765625 -0.25 1.75 -0.25q0.96875 0 1.8125 0.171875q0.859375 0.15625 1.5 0.375l0.34375 -2.390625q-0.40625 -0.109375 -0.796875 -0.1875q-0.390625 -0.09375 -0.78125 -0.171875q-0.59375 -0.109375 -1.203125 -0.171875q-0.609375 -0.078125 -1.234375 -0.078125q-1.5 0 -2.71875 0.421875q-1.21875 0.421875 -2.078125 1.25q-0.875 0.828125 -1.359375 2.0625q-0.46875 1.21875 -0.46875 2.84375l0 1.1875l-4.65625 0l0 2.234375l4.65625 0l0 14.671875zm15.34375 -24.0l0 2.515625l5.75 0l0 18.984375l-5.75 0l0 2.5l14.15625 0l0 -2.5l-5.515625 0l0 -21.5l-8.640625 0zm29.859375 24.0l3.015625 0l0 -0.25q-0.28125 -0.703125 -0.4375 -1.640625q-0.15625 -0.953125 -0.15625 -1.796875l0 -7.859375q0 -1.421875 -0.515625 -2.484375q-0.515625 -1.0625 -1.40625 -1.78125q-0.90625 -0.703125 -2.140625 -1.046875q-1.234375 -0.359375 -2.671875 -0.359375q-1.578125 0 -2.828125 0.4375q-1.234375 0.4375 -2.09375 1.140625q-0.875 0.71875 -1.34375 1.609375q-0.453125 0.890625 -0.46875 1.8125l2.90625 0q0 -0.53125 0.25 -1.015625q0.265625 -0.5 0.734375 -0.859375q0.46875 -0.359375 1.140625 -0.578125q0.6875 -0.21875 1.546875 -0.21875q0.921875 0 1.65625 0.234375q0.75 0.234375 1.265625 0.65625q0.515625 0.4375 0.796875 1.046875q0.28125 0.609375 0.28125 1.375l0 1.328125l-3.15625 0q-1.765625 0 -3.203125 0.34375q-1.421875 0.34375 -2.4375 1.03125q-1.015625 0.703125 -1.578125 1.75q-0.546875 1.046875 -0.546875 2.4375q0 1.0625 0.40625 1.984375q0.421875 0.90625 1.1875 1.5625q0.75 0.671875 1.828125 1.0625q1.09375 0.390625 2.4375 0.390625q0.828125 0 1.5625 -0.171875q0.734375 -0.171875 1.390625 -0.46875q0.640625 -0.296875 1.171875 -0.6875q0.546875 -0.390625 0.984375 -0.828125q0.046875 0.53125 0.140625 1.03125q0.109375 0.484375 0.28125 0.8125zm-5.109375 -2.203125q-0.84375 0 -1.484375 -0.21875q-0.640625 -0.21875 -1.0625 -0.609375q-0.421875 -0.375 -0.640625 -0.90625q-0.203125 -0.53125 -0.203125 -1.15625q0 -0.65625 0.234375 -1.171875q0.25 -0.515625 0.71875 -0.890625q0.65625 -0.53125 1.765625 -0.78125q1.125 -0.265625 2.625 -0.265625l2.6875 0l0 3.421875q-0.25 0.5 -0.6875 0.96875q-0.4375 0.453125 -1.03125 0.8125q-0.609375 0.359375 -1.34375 0.578125q-0.734375 0.21875 -1.578125 0.21875zm12.671875 -6.390625l0 0.328125q0 1.8125 0.46875 3.390625q0.46875 1.5625 1.34375 2.71875q0.859375 1.15625 2.109375 1.8125q1.25 0.65625 2.796875 0.65625q0.921875 0 1.71875 -0.203125q0.796875 -0.1875 1.453125 -0.546875q0.421875 -0.234375 0.78125 -0.546875q0.375 -0.3125 0.703125 -0.6875l0 1.453125q0 1.09375 -0.3125 1.9375q-0.3125 0.84375 -0.890625 1.40625q-0.59375 0.578125 -1.421875 0.875q-0.828125 0.296875 -1.859375 0.296875q-0.578125 0 -1.15625 -0.125q-0.578125 -0.109375 -1.15625 -0.375q-0.578125 -0.265625 -1.140625 -0.71875q-0.5625 -0.4375 -1.09375 -1.078125l-1.5 1.734375q0.578125 0.828125 1.375 1.390625q0.8125 0.5625 1.6875 0.890625q0.859375 0.34375 1.703125 0.484375q0.84375 0.15625 1.5 0.15625q1.59375 0 2.90625 -0.46875q1.3125 -0.46875 2.265625 -1.375q0.9375 -0.90625 1.453125 -2.203125q0.53125 -1.296875 0.53125 -2.96875l0 -16.546875l-2.625 0l-0.140625 1.84375q-0.296875 -0.375 -0.640625 -0.6875q-0.328125 -0.3125 -0.703125 -0.546875q-0.6875 -0.453125 -1.546875 -0.6875q-0.84375 -0.234375 -1.859375 -0.234375q-1.578125 0 -2.828125 0.640625q-1.25 0.640625 -2.125 1.78125q-0.875 1.140625 -1.34375 2.734375q-0.453125 1.578125 -0.453125 3.46875zm2.890625 0.328125l0 -0.328125q0 -1.234375 0.25 -2.34375q0.265625 -1.125 0.828125 -1.984375q0.546875 -0.84375 1.40625 -1.34375q0.875 -0.5 2.09375 -0.5q0.71875 0 1.3125 0.1875q0.59375 0.171875 1.078125 0.484375q0.484375 0.328125 0.859375 0.765625q0.375 0.4375 0.65625 0.96875l0 7.75q-0.28125 0.546875 -0.65625 1.0q-0.375 0.453125 -0.84375 0.78125q-0.484375 0.328125 -1.09375 0.515625q-0.59375 0.171875 -1.34375 0.171875q-1.203125 0 -2.0625 -0.484375q-0.859375 -0.5 -1.40625 -1.34375q-0.5625 -0.84375 -0.828125 -1.953125q-0.25 -1.109375 -0.25 -2.34375zm28.078125 3.78125q0 0.40625 -0.15625 0.765625q-0.15625 0.359375 -0.453125 0.65625q-0.484375 0.484375 -1.34375 0.765625q-0.859375 0.265625 -2.015625 0.265625q-0.734375 0 -1.484375 -0.15625q-0.75 -0.15625 -1.359375 -0.53125q-0.625 -0.375 -1.046875 -0.984375q-0.40625 -0.609375 -0.46875 -1.5l-2.890625 0q0 1.078125 0.484375 2.078125q0.5 1.0 1.4375 1.75q0.921875 0.765625 2.265625 1.234375q1.34375 0.453125 3.0625 0.453125q1.5 0 2.765625 -0.359375q1.265625 -0.359375 2.171875 -1.015625q0.90625 -0.65625 1.40625 -1.578125q0.515625 -0.921875 0.515625 -2.046875q0 -1.046875 -0.453125 -1.84375q-0.4375 -0.796875 -1.28125 -1.40625q-0.84375 -0.59375 -2.078125 -1.015625q-1.234375 -0.4375 -2.796875 -0.765625q-1.1875 -0.234375 -1.96875 -0.484375q-0.765625 -0.25 -1.21875 -0.5625q-0.46875 -0.3125 -0.65625 -0.703125q-0.1875 -0.390625 -0.1875 -0.890625q0 -0.484375 0.234375 -0.9375q0.234375 -0.453125 0.703125 -0.796875q0.453125 -0.34375 1.140625 -0.546875q0.703125 -0.203125 1.625 -0.203125q0.890625 0 1.59375 0.25q0.71875 0.25 1.21875 0.65625q0.5 0.40625 0.78125 0.9375q0.28125 0.515625 0.28125 1.0625l2.890625 0q0 -1.109375 -0.484375 -2.0625q-0.46875 -0.96875 -1.34375 -1.6875q-0.875 -0.71875 -2.125 -1.125q-1.25 -0.40625 -2.8125 -0.40625q-1.453125 0 -2.671875 0.390625q-1.203125 0.390625 -2.078125 1.0625q-0.875 0.671875 -1.359375 1.578125q-0.484375 0.890625 -0.484375 1.921875q0 1.046875 0.46875 1.84375q0.46875 0.78125 1.328125 1.359375q0.84375 0.59375 2.03125 1.015625q1.203125 0.421875 2.65625 0.71875q1.1875 0.234375 1.984375 0.53125q0.796875 0.28125 1.28125 0.625q0.484375 0.34375 0.6875 0.765625q0.203125 0.40625 0.203125 0.921875z" fill-rule="nonzero"/><path fill="#000000" d="m383.3156 63.08213l0 -9.609375l-2.890625 0l0 24.0l2.890625 0l0 -12.28125q0.3125 -0.5 0.703125 -0.90625q0.40625 -0.421875 0.875 -0.734375q0.59375 -0.40625 1.296875 -0.625q0.703125 -0.21875 1.484375 -0.21875q0.953125 -0.015625 1.6875 0.265625q0.734375 0.265625 1.21875 0.8125q0.453125 0.5 0.6875 1.265625q0.234375 0.75 0.234375 1.75l0 10.671875l2.890625 0l0 -10.640625q0 -1.703125 -0.421875 -2.9375q-0.40625 -1.25 -1.171875 -2.0625q-0.765625 -0.8125 -1.859375 -1.1875q-1.078125 -0.390625 -2.40625 -0.390625q-1.015625 0.015625 -1.921875 0.296875q-0.890625 0.28125 -1.640625 0.828125q-0.46875 0.328125 -0.890625 0.765625q-0.421875 0.421875 -0.765625 0.9375zm27.421875 14.390625l3.015625 0l0 -0.25q-0.28125 -0.703125 -0.4375 -1.640625q-0.15625 -0.953125 -0.15625 -1.796875l0 -7.859375q0 -1.421875 -0.515625 -2.484375q-0.515625 -1.0625 -1.40625 -1.78125q-0.90625 -0.703125 -2.140625 -1.046875q-1.234375 -0.359375 -2.671875 -0.359375q-1.578125 0 -2.828125 0.4375q-1.234375 0.4375 -2.09375 1.140625q-0.875 0.71875 -1.34375 1.609375q-0.453125 0.890625 -0.46875 1.8125l2.90625 0q0 -0.53125 0.25 -1.015625q0.265625 -0.5 0.734375 -0.859375q0.46875 -0.359375 1.140625 -0.578125q0.6875 -0.21875 1.546875 -0.21875q0.921875 0 1.65625 0.234375q0.75 0.234375 1.265625 0.65625q0.515625 0.4375 0.796875 1.046875q0.28125 0.609375 0.28125 1.375l0 1.328125l-3.15625 0q-1.765625 0 -3.203125 0.34375q-1.421875 0.34375 -2.4375 1.03125q-1.015625 0.703125 -1.578125 1.75q-0.546875 1.046875 -0.546875 2.4375q0 1.0625 0.40625 1.984375q0.421875 0.90625 1.1875 1.5625q0.75 0.671875 1.828125 1.0625q1.09375 0.390625 2.4375 0.390625q0.828125 0 1.5625 -0.171875q0.734375 -0.171875 1.390625 -0.46875q0.640625 -0.296875 1.171875 -0.6875q0.546875 -0.390625 0.984375 -0.828125q0.046875 0.53125 0.140625 1.03125q0.109375 0.484375 0.28125 0.8125zm-5.109375 -2.203125q-0.84375 0 -1.484375 -0.21875q-0.640625 -0.21875 -1.0625 -0.609375q-0.421875 -0.375 -0.640625 -0.90625q-0.203125 -0.53125 -0.203125 -1.15625q0 -0.65625 0.234375 -1.171875q0.25 -0.515625 0.71875 -0.890625q0.65625 -0.53125 1.765625 -0.78125q1.125 -0.265625 2.625 -0.265625l2.6875 0l0 3.421875q-0.25 0.5 -0.6875 0.96875q-0.4375 0.453125 -1.03125 0.8125q-0.609375 0.359375 -1.34375 0.578125q-0.734375 0.21875 -1.578125 0.21875zm18.96875 2.203125l2.203125 0l6.890625 -16.90625l-2.953125 0l-4.734375 12.75l-0.28125 1.046875l-0.265625 -1.046875l-4.84375 -12.75l-2.96875 0l6.953125 16.90625zm20.90625 0.3125q2.46875 0 4.140625 -0.984375q1.6875 -1.0 2.53125 -2.28125l-1.765625 -1.375q-0.796875 1.03125 -2.0 1.65625q-1.203125 0.625 -2.75 0.625q-1.171875 0 -2.140625 -0.4375q-0.96875 -0.4375 -1.65625 -1.203125q-0.671875 -0.71875 -1.0625 -1.65625q-0.375 -0.9375 -0.484375 -2.171875l0 -0.109375l12.078125 0l0 -1.296875q0 -1.765625 -0.453125 -3.28125q-0.4375 -1.515625 -1.34375 -2.640625q-0.90625 -1.109375 -2.28125 -1.734375q-1.359375 -0.640625 -3.1875 -0.640625q-1.453125 0 -2.84375 0.59375q-1.375 0.59375 -2.453125 1.703125q-1.09375 1.125 -1.75 2.75q-0.65625 1.609375 -0.65625 3.65625l0 0.65625q0 1.765625 0.59375 3.265625q0.59375 1.5 1.65625 2.59375q1.0625 1.09375 2.546875 1.703125q1.5 0.609375 3.28125 0.609375zm-0.375 -15.15625q1.109375 0 1.90625 0.40625q0.8125 0.40625 1.34375 1.0625q0.53125 0.65625 0.828125 1.5625q0.296875 0.890625 0.296875 1.671875l0 0.140625l-9.09375 0q0.171875 -1.171875 0.59375 -2.0625q0.4375 -0.90625 1.0625 -1.53125q0.625 -0.609375 1.40625 -0.921875q0.78125 -0.328125 1.65625 -0.328125zm26.140625 17.203125l0 -2.359375l-14.328125 0l0 2.359375l14.328125 0zm9.484375 -2.359375l2.90625 0l0 -14.671875l6.515625 0l0 -2.234375l-6.515625 0l0 -1.1875q0 -1.0625 0.265625 -1.859375q0.28125 -0.796875 0.8125 -1.296875q0.5 -0.484375 1.25 -0.71875q0.765625 -0.25 1.75 -0.25q0.96875 0 1.8125 0.171875q0.859375 0.15625 1.5 0.375l0.34375 -2.390625q-0.40625 -0.109375 -0.796875 -0.1875q-0.390625 -0.09375 -0.78125 -0.171875q-0.59375 -0.109375 -1.203125 -0.171875q-0.609375 -0.078125 -1.234375 -0.078125q-1.5 0 -2.71875 0.421875q-1.21875 0.421875 -2.078125 1.25q-0.875 0.828125 -1.359375 2.0625q-0.46875 1.21875 -0.46875 2.84375l0 1.1875l-4.65625 0l0 2.234375l4.65625 0l0 14.671875zm26.0 0l3.015625 0l0 -0.25q-0.28125 -0.703125 -0.4375 -1.640625q-0.15625 -0.953125 -0.15625 -1.796875l0 -7.859375q0 -1.421875 -0.515625 -2.484375q-0.515625 -1.0625 -1.40625 -1.78125q-0.90625 -0.703125 -2.140625 -1.046875q-1.234375 -0.359375 -2.671875 -0.359375q-1.578125 0 -2.828125 0.4375q-1.234375 0.4375 -2.09375 1.140625q-0.875 0.71875 -1.34375 1.609375q-0.453125 0.890625 -0.46875 1.8125l2.90625 0q0 -0.53125 0.25 -1.015625q0.265625 -0.5 0.734375 -0.859375q0.46875 -0.359375 1.140625 -0.578125q0.6875 -0.21875 1.546875 -0.21875q0.921875 0 1.65625 0.234375q0.75 0.234375 1.265625 0.65625q0.515625 0.4375 0.796875 1.046875q0.28125 0.609375 0.28125 1.375l0 1.328125l-3.15625 0q-1.765625 0 -3.203125 0.34375q-1.421875 0.34375 -2.4375 1.03125q-1.015625 0.703125 -1.578125 1.75q-0.546875 1.046875 -0.546875 2.4375q0 1.0625 0.40625 1.984375q0.421875 0.90625 1.1875 1.5625q0.75 0.671875 1.828125 1.0625q1.09375 0.390625 2.4375 0.390625q0.828125 0 1.5625 -0.171875q0.734375 -0.171875 1.390625 -0.46875q0.640625 -0.296875 1.171875 -0.6875q0.546875 -0.390625 0.984375 -0.828125q0.046875 0.53125 0.140625 1.03125q0.109375 0.484375 0.28125 0.8125zm-5.109375 -2.203125q-0.84375 0 -1.484375 -0.21875q-0.640625 -0.21875 -1.0625 -0.609375q-0.421875 -0.375 -0.640625 -0.90625q-0.203125 -0.53125 -0.203125 -1.15625q0 -0.65625 0.234375 -1.171875q0.25 -0.515625 0.71875 -0.890625q0.65625 -0.53125 1.765625 -0.78125q1.125 -0.265625 2.625 -0.265625l2.6875 0l0 3.421875q-0.25 0.5 -0.6875 0.96875q-0.4375 0.453125 -1.03125 0.8125q-0.609375 0.359375 -1.34375 0.578125q-0.734375 0.21875 -1.578125 0.21875zm24.4375 -2.28125q0 0.40625 -0.15625 0.765625q-0.15625 0.359375 -0.453125 0.65625q-0.484375 0.484375 -1.34375 0.765625q-0.859375 0.265625 -2.015625 0.265625q-0.734375 0 -1.484375 -0.15625q-0.75 -0.15625 -1.359375 -0.53125q-0.625 -0.375 -1.046875 -0.984375q-0.40625 -0.609375 -0.46875 -1.5l-2.890625 0q0 1.078125 0.484375 2.078125q0.5 1.0 1.4375 1.75q0.921875 0.765625 2.265625 1.234375q1.34375 0.453125 3.0625 0.453125q1.5 0 2.765625 -0.359375q1.265625 -0.359375 2.171875 -1.015625q0.90625 -0.65625 1.40625 -1.578125q0.515625 -0.921875 0.515625 -2.046875q0 -1.046875 -0.453125 -1.84375q-0.4375 -0.796875 -1.28125 -1.40625q-0.84375 -0.59375 -2.078125 -1.015625q-1.234375 -0.4375 -2.796875 -0.765625q-1.1875 -0.234375 -1.96875 -0.484375q-0.765625 -0.25 -1.21875 -0.5625q-0.46875 -0.3125 -0.65625 -0.703125q-0.1875 -0.390625 -0.1875 -0.890625q0 -0.484375 0.234375 -0.9375q0.234375 -0.453125 0.703125 -0.796875q0.453125 -0.34375 1.140625 -0.546875q0.703125 -0.203125 1.625 -0.203125q0.890625 0 1.59375 0.25q0.71875 0.25 1.21875 0.65625q0.5 0.40625 0.78125 0.9375q0.28125 0.515625 0.28125 1.0625l2.890625 0q0 -1.109375 -0.484375 -2.0625q-0.46875 -0.96875 -1.34375 -1.6875q-0.875 -0.71875 -2.125 -1.125q-1.25 -0.40625 -2.8125 -0.40625q-1.453125 0 -2.671875 0.390625q-1.203125 0.390625 -2.078125 1.0625q-0.875 0.671875 -1.359375 1.578125q-0.484375 0.890625 -0.484375 1.921875q0 1.046875 0.46875 1.84375q0.46875 0.78125 1.328125 1.359375q0.84375 0.59375 2.03125 1.015625q1.203125 0.421875 2.65625 0.71875q1.1875 0.234375 1.984375 0.53125q0.796875 0.28125 1.28125 0.625q0.484375 0.34375 0.6875 0.765625q0.203125 0.40625 0.203125 0.921875zm14.8125 -16.515625l-2.90625 0l0 4.09375l-4.4375 0l0 2.234375l4.4375 0l0 9.1875q0 1.5625 0.40625 2.671875q0.421875 1.09375 1.140625 1.78125q0.71875 0.703125 1.6875 1.03125q0.984375 0.3125 2.109375 0.3125q0.671875 0 1.34375 -0.0625q0.6875 -0.0625 1.296875 -0.1875q0.609375 -0.109375 1.125 -0.265625q0.515625 -0.171875 0.875 -0.390625l-0.40625 -2.046875q-0.265625 0.0625 -0.6875 0.15625q-0.40625 0.078125 -0.875 0.15625q-0.484375 0.078125 -0.984375 0.140625q-0.5 0.046875 -0.96875 0.046875q-0.640625 0 -1.21875 -0.15625q-0.5625 -0.15625 -1.0 -0.546875q-0.4375 -0.375 -0.6875 -1.015625q-0.25 -0.640625 -0.25 -1.625l0 -9.1875l6.4375 0l0 -2.234375l-6.4375 0l0 -4.09375zm19.5625 18.96875q-1.359375 0 -2.28125 -0.53125q-0.90625 -0.546875 -1.453125 -1.421875q-0.5625 -0.859375 -0.8125 -1.9375q-0.234375 -1.09375 -0.234375 -2.203125l0 -0.65625q0 -1.09375 0.234375 -2.171875q0.25 -1.078125 0.8125 -1.953125q0.5625 -0.859375 1.46875 -1.390625q0.921875 -0.546875 2.265625 -0.546875q0.875 0 1.625 0.296875q0.765625 0.296875 1.3125 0.8125q0.546875 0.515625 0.859375 1.203125q0.328125 0.671875 0.34375 1.4375l2.734375 0q0 -1.28125 -0.515625 -2.40625q-0.515625 -1.125 -1.421875 -1.953125q-0.921875 -0.8125 -2.1875 -1.28125q-1.25 -0.484375 -2.75 -0.484375q-1.921875 0 -3.359375 0.6875q-1.4375 0.6875 -2.390625 1.84375q-0.96875 1.171875 -1.453125 2.703125q-0.484375 1.53125 -0.484375 3.203125l0 0.65625q0 1.6875 0.484375 3.21875q0.484375 1.515625 1.453125 2.671875q0.953125 1.171875 2.390625 1.859375q1.4375 0.6875 3.359375 0.6875q1.34375 0 2.578125 -0.453125q1.234375 -0.46875 2.1875 -1.25q0.953125 -0.765625 1.515625 -1.78125q0.578125 -1.03125 0.59375 -2.15625l-2.734375 0q-0.015625 0.703125 -0.375 1.3125q-0.34375 0.59375 -0.921875 1.03125q-0.578125 0.453125 -1.328125 0.703125q-0.734375 0.25 -1.515625 0.25zm14.890625 -12.359375l0 -9.609375l-2.890625 0l0 24.0l2.890625 0l0 -12.28125q0.3125 -0.5 0.703125 -0.90625q0.40625 -0.421875 0.875 -0.734375q0.59375 -0.40625 1.296875 -0.625q0.703125 -0.21875 1.484375 -0.21875q0.953125 -0.015625 1.6875 0.265625q0.734375 0.265625 1.21875 0.8125q0.453125 0.5 0.6875 1.265625q0.234375 0.75 0.234375 1.75l0 10.671875l2.890625 0l0 -10.640625q0 -1.703125 -0.421875 -2.9375q-0.40625 -1.25 -1.171875 -2.0625q-0.765625 -0.8125 -1.859375 -1.1875q-1.078125 -0.390625 -2.40625 -0.390625q-1.015625 0.015625 -1.921875 0.296875q-0.890625 0.28125 -1.640625 0.828125q-0.46875 0.328125 -0.890625 0.765625q-0.421875 0.421875 -0.765625 0.9375zm27.453125 14.390625l2.625 0l0 -16.90625l-2.90625 0l0 12.125q-0.234375 0.546875 -0.59375 1.015625q-0.34375 0.453125 -0.8125 0.78125q-0.5625 0.40625 -1.328125 0.640625q-0.765625 0.21875 -1.734375 0.21875q-0.828125 0 -1.46875 -0.21875q-0.625 -0.21875 -1.0625 -0.765625q-0.4375 -0.53125 -0.65625 -1.4375q-0.21875 -0.90625 -0.21875 -2.28125l0 -10.078125l-2.890625 0l0 10.046875q0 1.890625 0.40625 3.25q0.421875 1.34375 1.1875 2.21875q0.765625 0.875 1.84375 1.296875q1.078125 0.40625 2.40625 0.40625q1.65625 0 2.921875 -0.6875q1.265625 -0.703125 2.109375 -1.953125l0.171875 2.328125zm8.0625 0l2.890625 0l0 -12.125q0.296875 -0.546875 0.6875 -1.0q0.40625 -0.453125 0.875 -0.796875q0.578125 -0.390625 1.265625 -0.609375q0.6875 -0.234375 1.484375 -0.234375q0.921875 0 1.625 0.21875q0.71875 0.21875 1.21875 0.703125q0.484375 0.484375 0.734375 1.265625q0.25 0.78125 0.25 1.90625l0 10.671875l2.890625 0l0 -10.734375q0 -1.6875 -0.421875 -2.90625q-0.40625 -1.234375 -1.171875 -2.03125q-0.765625 -0.796875 -1.859375 -1.171875q-1.078125 -0.375 -2.40625 -0.375q-0.984375 0.015625 -1.875 0.296875q-0.875 0.265625 -1.625 0.765625q-0.5 0.328125 -0.953125 0.78125q-0.4375 0.4375 -0.8125 0.96875l-0.203125 -2.5l-2.59375 0l0 16.90625zm24.265625 -7.890625l6.203125 7.890625l3.671875 0l-7.890625 -9.859375l6.84375 -7.046875l-3.515625 0l-5.546875 5.5625l-1.890625 2.03125l0 -14.6875l-2.90625 0l0 24.0l2.90625 0l0 -5.84375l2.125 -2.046875zm25.375 3.40625q0 0.40625 -0.15625 0.765625q-0.15625 0.359375 -0.453125 0.65625q-0.484375 0.484375 -1.34375 0.765625q-0.859375 0.265625 -2.015625 0.265625q-0.734375 0 -1.484375 -0.15625q-0.75 -0.15625 -1.359375 -0.53125q-0.625 -0.375 -1.046875 -0.984375q-0.40625 -0.609375 -0.46875 -1.5l-2.890625 0q0 1.078125 0.484375 2.078125q0.5 1.0 1.4375 1.75q0.921875 0.765625 2.265625 1.234375q1.34375 0.453125 3.0625 0.453125q1.5 0 2.765625 -0.359375q1.265625 -0.359375 2.171875 -1.015625q0.90625 -0.65625 1.40625 -1.578125q0.515625 -0.921875 0.515625 -2.046875q0 -1.046875 -0.453125 -1.84375q-0.4375 -0.796875 -1.28125 -1.40625q-0.84375 -0.59375 -2.078125 -1.015625q-1.234375 -0.4375 -2.796875 -0.765625q-1.1875 -0.234375 -1.96875 -0.484375q-0.765625 -0.25 -1.21875 -0.5625q-0.46875 -0.3125 -0.65625 -0.703125q-0.1875 -0.390625 -0.1875 -0.890625q0 -0.484375 0.234375 -0.9375q0.234375 -0.453125 0.703125 -0.796875q0.453125 -0.34375 1.140625 -0.546875q0.703125 -0.203125 1.625 -0.203125q0.890625 0 1.59375 0.25q0.71875 0.25 1.21875 0.65625q0.5 0.40625 0.78125 0.9375q0.28125 0.515625 0.28125 1.0625l2.890625 0q0 -1.109375 -0.484375 -2.0625q-0.46875 -0.96875 -1.34375 -1.6875q-0.875 -0.71875 -2.125 -1.125q-1.25 -0.40625 -2.8125 -0.40625q-1.453125 0 -2.671875 0.390625q-1.203125 0.390625 -2.078125 1.0625q-0.875 0.671875 -1.359375 1.578125q-0.484375 0.890625 -0.484375 1.921875q0 1.046875 0.46875 1.84375q0.46875 0.78125 1.328125 1.359375q0.84375 0.59375 2.03125 1.015625q1.203125 0.421875 2.65625 0.71875q1.1875 0.234375 1.984375 0.53125q0.796875 0.28125 1.28125 0.625q0.484375 0.34375 0.6875 0.765625q0.203125 0.40625 0.203125 0.921875z" fill-rule="nonzero"/><path fill="#000000" d="m184.08719 129.3077l0 -5.3281326q0 -2.171875 -0.5 -3.84375q-0.5 -1.6875 -1.4375 -2.84375q-0.953125 -1.15625 -2.328125 -1.75q-1.359375 -0.609375 -3.109375 -0.609375q-1.734375 0 -3.109375 0.609375q-1.359375 0.59375 -2.296875 1.75q-0.953125 1.15625 -1.453125 2.84375q-0.5 1.671875 -0.5 3.84375l0 5.3281326q0 2.171875 0.5 3.859375q0.5 1.671875 1.453125 2.8125q0.953125 1.171875 2.328125 1.765625q1.375 0.578125 3.109375 0.578125q1.75 0 3.109375 -0.59375q1.359375 -0.59375 2.296875 -1.75q0.9375 -1.140625 1.4375 -2.8125q0.5 -1.6875 0.5 -3.859375zm-11.828125 -0.578125q0 -0.40625 0 -0.7968826q0 -0.390625 0 -0.78125l0 -3.8125q0 -1.59375 0.3125 -2.796875q0.328125 -1.21875 0.984375 -1.984375q0.546875 -0.609375 1.328125 -0.921875q0.796875 -0.328125 1.828125 -0.328125q1.015625 0 1.78125 0.296875q0.78125 0.296875 1.3125 0.890625q0.546875 0.578125 0.859375 1.453125q0.328125 0.859375 0.453125 1.984375l-8.859375 6.7968826zm8.921875 1.1875q0 1.671875 -0.34375 2.90625q-0.328125 1.234375 -1.046875 2.0q-0.53125 0.5625 -1.296875 0.859375q-0.765625 0.296875 -1.75 0.296875q-0.9375 0 -1.6875 -0.265625q-0.75 -0.28125 -1.28125 -0.8125q-0.578125 -0.5625 -0.9375 -1.421875q-0.359375 -0.875 -0.5 -2.015625l8.84375 -6.7656326q0 0.4375 0 1.109375q0 0.65625 0 0.890625l0 3.2187576zm14.8125 -2.5468826l-4.46875 -6.265625l-3.34375 0l6.296875 8.359383l-6.46875 8.546875l3.375 0l4.671875 -6.4375l4.671875 6.4375l3.34375 0l-6.46875 -8.546875l6.296875 -8.359383l-3.390625 0l-4.515625 6.265625zm26.171875 10.640633l0 -2.359375l-11.421875 0l6.109375 -6.625q0.859375 -0.9375 1.625 -1.8750076q0.78125 -0.953125 1.375 -1.921875q0.578125 -0.96875 0.921875 -1.953125q0.34375 -1.0 0.34375 -2.015625q0 -1.359375 -0.484375 -2.515625q-0.46875 -1.15625 -1.359375 -2.0q-0.890625 -0.84375 -2.1875 -1.3125q-1.28125 -0.484375 -2.890625 -0.484375q-1.75 0 -3.125 0.5625q-1.359375 0.5625 -2.296875 1.515625q-0.953125 0.953125 -1.453125 2.234375q-0.5 1.265625 -0.5 2.703125l2.90625 0q0 -1.0625 0.265625 -1.921875q0.28125 -0.859375 0.84375 -1.46875q0.546875 -0.59375 1.375 -0.921875q0.84375 -0.328125 1.984375 -0.328125q0.9375 0 1.671875 0.328125q0.75 0.3125 1.28125 0.859375q0.515625 0.546875 0.78125 1.296875q0.28125 0.734375 0.28125 1.578125q0 0.6875 -0.171875 1.34375q-0.171875 0.640625 -0.578125 1.359375q-0.40625 0.734375 -1.078125 1.59375q-0.671875 0.859375 -1.671875 1.96875l-7.453125 8.281258l0 2.078125l14.90625 0zm19.53125 -8.703125l0 -5.3281326q0 -2.171875 -0.5 -3.84375q-0.5 -1.6875 -1.4375 -2.84375q-0.953125 -1.15625 -2.328125 -1.75q-1.359375 -0.609375 -3.109375 -0.609375q-1.734375 0 -3.109375 0.609375q-1.359375 0.59375 -2.296875 1.75q-0.953125 1.15625 -1.453125 2.84375q-0.5 1.671875 -0.5 3.84375l0 5.3281326q0 2.171875 0.5 3.859375q0.5 1.671875 1.453125 2.8125q0.953125 1.171875 2.328125 1.765625q1.375 0.578125 3.109375 0.578125q1.75 0 3.109375 -0.59375q1.359375 -0.59375 2.296875 -1.75q0.9375 -1.140625 1.4375 -2.8125q0.5 -1.6875 0.5 -3.859375zm-11.828125 -0.578125q0 -0.40625 0 -0.7968826q0 -0.390625 0 -0.78125l0 -3.8125q0 -1.59375 0.3125 -2.796875q0.328125 -1.21875 0.984375 -1.984375q0.546875 -0.609375 1.328125 -0.921875q0.796875 -0.328125 1.828125 -0.328125q1.015625 0 1.78125 0.296875q0.78125 0.296875 1.3125 0.890625q0.546875 0.578125 0.859375 1.453125q0.328125 0.859375 0.453125 1.984375l-8.859375 6.7968826zm8.921875 1.1875q0 1.671875 -0.34375 2.90625q-0.328125 1.234375 -1.046875 2.0q-0.53125 0.5625 -1.296875 0.859375q-0.765625 0.296875 -1.75 0.296875q-0.9375 0 -1.6875 -0.265625q-0.75 -0.28125 -1.28125 -0.8125q-0.578125 -0.5625 -0.9375 -1.421875q-0.359375 -0.875 -0.5 -2.015625l8.84375 -6.7656326q0 0.4375 0 1.109375q0 0.65625 0 0.890625l0 3.2187576z" fill-rule="nonzero"/><path fill="#000000" d="m561.27356 129.3077l0 -5.3281326q0 -2.171875 -0.5 -3.84375q-0.5 -1.6875 -1.4375 -2.84375q-0.953125 -1.15625 -2.328125 -1.75q-1.359375 -0.609375 -3.109375 -0.609375q-1.734375 0 -3.109375 0.609375q-1.359375 0.59375 -2.296875 1.75q-0.953125 1.15625 -1.453125 2.84375q-0.5 1.671875 -0.5 3.84375l0 5.3281326q0 2.171875 0.5 3.859375q0.5 1.671875 1.453125 2.8125q0.953125 1.171875 2.328125 1.765625q1.375 0.578125 3.109375 0.578125q1.75 0 3.109375 -0.59375q1.359375 -0.59375 2.296875 -1.75q0.9375 -1.140625 1.4375 -2.8125q0.5 -1.6875 0.5 -3.859375zm-11.828125 -0.578125q0 -0.40625 0 -0.7968826q0 -0.390625 0 -0.78125l0 -3.8125q0 -1.59375 0.3125 -2.796875q0.328125 -1.21875 0.984375 -1.984375q0.546875 -0.609375 1.328125 -0.921875q0.796875 -0.328125 1.828125 -0.328125q1.015625 0 1.78125 0.296875q0.78125 0.296875 1.3125 0.890625q0.546875 0.578125 0.859375 1.453125q0.328125 0.859375 0.453125 1.984375l-8.859375 6.7968826zm8.921875 1.1875q0 1.671875 -0.34375 2.90625q-0.328125 1.234375 -1.046875 2.0q-0.53125 0.5625 -1.296875 0.859375q-0.765625 0.296875 -1.75 0.296875q-0.9375 0 -1.6875 -0.265625q-0.75 -0.28125 -1.28125 -0.8125q-0.578125 -0.5625 -0.9375 -1.421875q-0.359375 -0.875 -0.5 -2.015625l8.84375 -6.7656326q0 0.4375 0 1.109375q0 0.65625 0 0.890625l0 3.2187576zm14.8125 -2.5468826l-4.46875 -6.265625l-3.34375 0l6.296875 8.359383l-6.46875 8.546875l3.375 0l4.671875 -6.4375l4.671875 6.4375l3.34375 0l-6.46875 -8.546875l6.296875 -8.359383l-3.390625 0l-4.515625 6.265625zm15.59375 -2.125l0 2.34375l2.0625 0q1.078125 0 1.96875 0.25q0.90625 0.25000763 1.546875 0.7656326q0.625 0.515625 0.96875 1.296875q0.359375 0.765625 0.359375 1.828125q0 1.078125 -0.3125 1.875q-0.296875 0.78125 -0.859375 1.3125q-0.5625 0.53125 -1.359375 0.796875q-0.796875 0.25 -1.78125 0.25q-0.984375 0 -1.796875 -0.28125q-0.796875 -0.28125 -1.359375 -0.796875q-0.5625 -0.515625 -0.875 -1.25q-0.296875 -0.734375 -0.296875 -1.625l-2.890625 0q0 1.5 0.5625 2.671875q0.578125 1.171875 1.546875 1.984375q0.96875 0.8125 2.28125 1.234375q1.328125 0.421875 2.828125 0.421875q1.53125 0 2.84375 -0.4375q1.328125 -0.453125 2.296875 -1.3125q0.96875 -0.84375 1.515625 -2.078125q0.546875 -1.234375 0.546875 -2.828125q0 -0.78125 -0.1875 -1.578125q-0.171875 -0.796875 -0.609375 -1.515625q-0.453125 -0.7187576 -1.203125 -1.2968826q-0.734375 -0.578125 -1.84375 -0.9375q0.921875 -0.390625 1.578125 -0.96875q0.671875 -0.59375 1.09375 -1.265625q0.421875 -0.65625 0.625 -1.359375q0.203125 -0.703125 0.203125 -1.359375q0 -1.578125 -0.5 -2.78125q-0.5 -1.203125 -1.40625 -2.015625q-0.90625 -0.8125 -2.171875 -1.21875q-1.265625 -0.421875 -2.796875 -0.421875q-1.578125 0 -2.875 0.5q-1.28125 0.484375 -2.203125 1.328125q-0.921875 0.859375 -1.4375 2.015625q-0.5 1.140625 -0.5 2.4375l2.90625 0q0 -0.890625 0.296875 -1.609375q0.296875 -0.71875 0.84375 -1.234375q0.53125 -0.515625 1.28125 -0.78125q0.765625 -0.28125 1.6875 -0.28125q0.953125 0 1.6875 0.25q0.75 0.234375 1.25 0.71875q0.515625 0.5 0.78125 1.265625q0.265625 0.75 0.265625 1.765625q0 0.859375 -0.296875 1.578125q-0.296875 0.71875 -0.859375 1.234375q-0.578125 0.515625 -1.421875 0.8125q-0.828125 0.296875 -1.921875 0.296875l-2.0625 0zm30.109375 4.0625076l0 -5.3281326q0 -2.171875 -0.5 -3.84375q-0.5 -1.6875 -1.4375 -2.84375q-0.953125 -1.15625 -2.328125 -1.75q-1.359375 -0.609375 -3.109375 -0.609375q-1.734375 0 -3.109375 0.609375q-1.359375 0.59375 -2.296875 1.75q-0.953125 1.15625 -1.453125 2.84375q-0.5 1.671875 -0.5 3.84375l0 5.3281326q0 2.171875 0.5 3.859375q0.5 1.671875 1.453125 2.8125q0.953125 1.171875 2.328125 1.765625q1.375 0.578125 3.109375 0.578125q1.75 0 3.109375 -0.59375q1.359375 -0.59375 2.296875 -1.75q0.9375 -1.140625 1.4375 -2.8125q0.5 -1.6875 0.5 -3.859375zm-11.828125 -0.578125q0 -0.40625 0 -0.7968826q0 -0.390625 0 -0.78125l0 -3.8125q0 -1.59375 0.3125 -2.796875q0.328125 -1.21875 0.984375 -1.984375q0.546875 -0.609375 1.328125 -0.921875q0.796875 -0.328125 1.828125 -0.328125q1.015625 0 1.78125 0.296875q0.78125 0.296875 1.3125 0.890625q0.546875 0.578125 0.859375 1.453125q0.328125 0.859375 0.453125 1.984375l-8.859375 6.7968826zm8.921875 1.1875q0 1.671875 -0.34375 2.90625q-0.328125 1.234375 -1.046875 2.0q-0.53125 0.5625 -1.296875 0.859375q-0.765625 0.296875 -1.75 0.296875q-0.9375 0 -1.6875 -0.265625q-0.75 -0.28125 -1.28125 -0.8125q-0.578125 -0.5625 -0.9375 -1.421875q-0.359375 -0.875 -0.5 -2.015625l8.84375 -6.7656326q0 0.4375 0 1.109375q0 0.65625 0 0.890625l0 3.2187576z" fill-rule="nonzero"/><path fill="#000000" d="m184.08719 189.84575l0 -5.328125q0 -2.171875 -0.5 -3.84375q-0.5 -1.6875 -1.4375 -2.84375q-0.953125 -1.15625 -2.328125 -1.75q-1.359375 -0.609375 -3.109375 -0.609375q-1.734375 0 -3.109375 0.609375q-1.359375 0.59375 -2.296875 1.75q-0.953125 1.15625 -1.453125 2.84375q-0.5 1.671875 -0.5 3.84375l0 5.328125q0 2.171875 0.5 3.859375q0.5 1.671875 1.453125 2.8125q0.953125 1.171875 2.328125 1.765625q1.375 0.578125 3.109375 0.578125q1.75 0 3.109375 -0.59375q1.359375 -0.59375 2.296875 -1.75q0.9375 -1.140625 1.4375 -2.8125q0.5 -1.6875 0.5 -3.859375zm-11.828125 -0.578125q0 -0.40625 0 -0.796875q0 -0.390625 0 -0.78125l0 -3.8125q0 -1.59375 0.3125 -2.796875q0.328125 -1.21875 0.984375 -1.984375q0.546875 -0.609375 1.328125 -0.921875q0.796875 -0.328125 1.828125 -0.328125q1.015625 0 1.78125 0.296875q0.78125 0.296875 1.3125 0.890625q0.546875 0.578125 0.859375 1.453125q0.328125 0.859375 0.453125 1.984375l-8.859375 6.796875zm8.921875 1.1875q0 1.671875 -0.34375 2.90625q-0.328125 1.234375 -1.046875 2.0q-0.53125 0.5625 -1.296875 0.859375q-0.765625 0.296875 -1.75 0.296875q-0.9375 0 -1.6875 -0.265625q-0.75 -0.28125 -1.28125 -0.8125q-0.578125 -0.5625 -0.9375 -1.421875q-0.359375 -0.875 -0.5 -2.015625l8.84375 -6.765625q0 0.4375 0 1.109375q0 0.65625 0 0.890625l0 3.21875zm14.8125 -2.546875l-4.46875 -6.265625l-3.34375 0l6.296875 8.359375l-6.46875 8.546875l3.375 0l4.671875 -6.4375l4.671875 6.4375l3.34375 0l-6.46875 -8.546875l6.296875 -8.359375l-3.390625 0l-4.515625 6.265625zm23.9375 3.0l0 -15.109375l-3.078125 0l-10.1875 15.765625l0 1.703125l10.375 0l0 5.28125l2.890625 0l0 -5.28125l3.171875 0l0 -2.359375l-3.171875 0zm-10.0625 0l6.703125 -10.390625l0.46875 -0.875l0 11.265625l-7.171875 0zm31.828125 -1.0625l0 -5.328125q0 -2.171875 -0.5 -3.84375q-0.5 -1.6875 -1.4375 -2.84375q-0.953125 -1.15625 -2.328125 -1.75q-1.359375 -0.609375 -3.109375 -0.609375q-1.734375 0 -3.109375 0.609375q-1.359375 0.59375 -2.296875 1.75q-0.953125 1.15625 -1.453125 2.84375q-0.5 1.671875 -0.5 3.84375l0 5.328125q0 2.171875 0.5 3.859375q0.5 1.671875 1.453125 2.8125q0.953125 1.171875 2.328125 1.765625q1.375 0.578125 3.109375 0.578125q1.75 0 3.109375 -0.59375q1.359375 -0.59375 2.296875 -1.75q0.9375 -1.140625 1.4375 -2.8125q0.5 -1.6875 0.5 -3.859375zm-11.828125 -0.578125q0 -0.40625 0 -0.796875q0 -0.390625 0 -0.78125l0 -3.8125q0 -1.59375 0.3125 -2.796875q0.328125 -1.21875 0.984375 -1.984375q0.546875 -0.609375 1.328125 -0.921875q0.796875 -0.328125 1.828125 -0.328125q1.015625 0 1.78125 0.296875q0.78125 0.296875 1.3125 0.890625q0.546875 0.578125 0.859375 1.453125q0.328125 0.859375 0.453125 1.984375l-8.859375 6.796875zm8.921875 1.1875q0 1.671875 -0.34375 2.90625q-0.328125 1.234375 -1.046875 2.0q-0.53125 0.5625 -1.296875 0.859375q-0.765625 0.296875 -1.75 0.296875q-0.9375 0 -1.6875 -0.265625q-0.75 -0.28125 -1.28125 -0.8125q-0.578125 -0.5625 -0.9375 -1.421875q-0.359375 -0.875 -0.5 -2.015625l8.84375 -6.765625q0 0.4375 0 1.109375q0 0.65625 0 0.890625l0 3.21875z" fill-rule="nonzero"/><path fill="#000000" d="m561.27356 189.84575l0 -5.328125q0 -2.171875 -0.5 -3.84375q-0.5 -1.6875 -1.4375 -2.84375q-0.953125 -1.15625 -2.328125 -1.75q-1.359375 -0.609375 -3.109375 -0.609375q-1.734375 0 -3.109375 0.609375q-1.359375 0.59375 -2.296875 1.75q-0.953125 1.15625 -1.453125 2.84375q-0.5 1.671875 -0.5 3.84375l0 5.328125q0 2.171875 0.5 3.859375q0.5 1.671875 1.453125 2.8125q0.953125 1.171875 2.328125 1.765625q1.375 0.578125 3.109375 0.578125q1.75 0 3.109375 -0.59375q1.359375 -0.59375 2.296875 -1.75q0.9375 -1.140625 1.4375 -2.8125q0.5 -1.6875 0.5 -3.859375zm-11.828125 -0.578125q0 -0.40625 0 -0.796875q0 -0.390625 0 -0.78125l0 -3.8125q0 -1.59375 0.3125 -2.796875q0.328125 -1.21875 0.984375 -1.984375q0.546875 -0.609375 1.328125 -0.921875q0.796875 -0.328125 1.828125 -0.328125q1.015625 0 1.78125 0.296875q0.78125 0.296875 1.3125 0.890625q0.546875 0.578125 0.859375 1.453125q0.328125 0.859375 0.453125 1.984375l-8.859375 6.796875zm8.921875 1.1875q0 1.671875 -0.34375 2.90625q-0.328125 1.234375 -1.046875 2.0q-0.53125 0.5625 -1.296875 0.859375q-0.765625 0.296875 -1.75 0.296875q-0.9375 0 -1.6875 -0.265625q-0.75 -0.28125 -1.28125 -0.8125q-0.578125 -0.5625 -0.9375 -1.421875q-0.359375 -0.875 -0.5 -2.015625l8.84375 -6.765625q0 0.4375 0 1.109375q0 0.65625 0 0.890625l0 3.21875zm14.8125 -2.546875l-4.46875 -6.265625l-3.34375 0l6.296875 8.359375l-6.46875 8.546875l3.375 0l4.671875 -6.4375l4.671875 6.4375l3.34375 0l-6.46875 -8.546875l6.296875 -8.359375l-3.390625 0l-4.515625 6.265625zm13.25 -0.765625l2.3125 0.59375q0.390625 -0.34375 0.75 -0.609375q0.375 -0.265625 0.796875 -0.453125q0.421875 -0.1875 0.9375 -0.28125q0.53125 -0.109375 1.25 -0.109375q1.09375 0 1.9375 0.390625q0.84375 0.390625 1.421875 1.0625q0.578125 0.6875 0.875 1.609375q0.3125 0.921875 0.3125 1.984375q0 1.171875 -0.28125 2.125q-0.265625 0.953125 -0.796875 1.625q-0.546875 0.6875 -1.34375 1.0625q-0.796875 0.359375 -1.828125 0.359375q-1.828125 0 -3.0 -1.0q-1.15625 -1.0 -1.421875 -2.9375l-2.75 0q0.15625 1.578125 0.765625 2.765625q0.625 1.1875 1.59375 1.96875q0.953125 0.78125 2.1875 1.171875q1.234375 0.390625 2.625 0.390625q1.8125 0 3.15625 -0.5625q1.34375 -0.578125 2.234375 -1.59375q0.875 -1.0 1.3125 -2.390625q0.4375 -1.390625 0.4375 -3.015625q0 -1.71875 -0.46875 -3.125q-0.46875 -1.40625 -1.34375 -2.40625q-0.875 -0.984375 -2.125 -1.53125q-1.25 -0.546875 -2.828125 -0.546875q-1.234375 0 -2.171875 0.296875q-0.9375 0.296875 -1.609375 0.6875l0.640625 -6.0625l9.234375 0l0 -2.8125l-11.671875 0l-1.140625 11.34375zm32.453125 2.703125l0 -5.328125q0 -2.171875 -0.5 -3.84375q-0.5 -1.6875 -1.4375 -2.84375q-0.953125 -1.15625 -2.328125 -1.75q-1.359375 -0.609375 -3.109375 -0.609375q-1.734375 0 -3.109375 0.609375q-1.359375 0.59375 -2.296875 1.75q-0.953125 1.15625 -1.453125 2.84375q-0.5 1.671875 -0.5 3.84375l0 5.328125q0 2.171875 0.5 3.859375q0.5 1.671875 1.453125 2.8125q0.953125 1.171875 2.328125 1.765625q1.375 0.578125 3.109375 0.578125q1.75 0 3.109375 -0.59375q1.359375 -0.59375 2.296875 -1.75q0.9375 -1.140625 1.4375 -2.8125q0.5 -1.6875 0.5 -3.859375zm-11.828125 -0.578125q0 -0.40625 0 -0.796875q0 -0.390625 0 -0.78125l0 -3.8125q0 -1.59375 0.3125 -2.796875q0.328125 -1.21875 0.984375 -1.984375q0.546875 -0.609375 1.328125 -0.921875q0.796875 -0.328125 1.828125 -0.328125q1.015625 0 1.78125 0.296875q0.78125 0.296875 1.3125 0.890625q0.546875 0.578125 0.859375 1.453125q0.328125 0.859375 0.453125 1.984375l-8.859375 6.796875zm8.921875 1.1875q0 1.671875 -0.34375 2.90625q-0.328125 1.234375 -1.046875 2.0q-0.53125 0.5625 -1.296875 0.859375q-0.765625 0.296875 -1.75 0.296875q-0.9375 0 -1.6875 -0.265625q-0.75 -0.28125 -1.28125 -0.8125q-0.578125 -0.5625 -0.9375 -1.421875q-0.359375 -0.875 -0.5 -2.015625l8.84375 -6.765625q0 0.4375 0 1.109375q0 0.65625 0 0.890625l0 3.21875z" fill-rule="nonzero"/><path fill="#000000" d="m184.08719 250.3838l0 -5.328125q0 -2.171875 -0.5 -3.84375q-0.5 -1.6875 -1.4375 -2.84375q-0.953125 -1.15625 -2.328125 -1.75q-1.359375 -0.609375 -3.109375 -0.609375q-1.734375 0 -3.109375 0.609375q-1.359375 0.59375 -2.296875 1.75q-0.953125 1.15625 -1.453125 2.84375q-0.5 1.671875 -0.5 3.84375l0 5.328125q0 2.171875 0.5 3.859375q0.5 1.671875 1.453125 2.8124847q0.953125 1.171875 2.328125 1.765625q1.375 0.578125 3.109375 0.578125q1.75 0 3.109375 -0.59375q1.359375 -0.59375 2.296875 -1.75q0.9375 -1.1406097 1.4375 -2.8124847q0.5 -1.6875 0.5 -3.859375zm-11.828125 -0.578125q0 -0.40625 0 -0.796875q0 -0.390625 0 -0.78125l0 -3.8125q0 -1.59375 0.3125 -2.796875q0.328125 -1.21875 0.984375 -1.984375q0.546875 -0.609375 1.328125 -0.921875q0.796875 -0.328125 1.828125 -0.328125q1.015625 0 1.78125 0.296875q0.78125 0.296875 1.3125 0.890625q0.546875 0.578125 0.859375 1.453125q0.328125 0.859375 0.453125 1.984375l-8.859375 6.796875zm8.921875 1.1875q0 1.671875 -0.34375 2.90625q-0.328125 1.234375 -1.046875 2.0q-0.53125 0.56248474 -1.296875 0.85935974q-0.765625 0.296875 -1.75 0.296875q-0.9375 0 -1.6875 -0.265625q-0.75 -0.28125 -1.28125 -0.81248474q-0.578125 -0.5625 -0.9375 -1.421875q-0.359375 -0.875 -0.5 -2.015625l8.84375 -6.765625q0 0.4375 0 1.109375q0 0.65625 0 0.890625l0 3.21875zm14.8125 -2.546875l-4.46875 -6.265625l-3.34375 0l6.296875 8.359375l-6.46875 8.54686l3.375 0l4.671875 -6.4374847l4.671875 6.4374847l3.34375 0l-6.46875 -8.54686l6.296875 -8.359375l-3.390625 0l-4.515625 6.265625zm22.875 -12.125l-0.25 0q-2.4375 0 -4.359375 0.6875q-1.921875 0.671875 -3.265625 2.015625q-1.953125 1.953125 -2.625 4.703125q-0.671875 2.75 -0.671875 5.59375l0 1.359375q0 1.65625 0.5 3.3125q0.5 1.640625 1.515625 2.8749847q0.90625 1.125 2.234375 1.828125q1.328125 0.703125 3.078125 0.703125q1.734375 0 3.046875 -0.609375q1.328125 -0.609375 2.21875 -1.671875q0.890625 -1.046875 1.328125 -2.4531097q0.453125 -1.40625 0.453125 -3.0q0 -1.390625 -0.375 -2.734375q-0.375 -1.34375 -1.171875 -2.40625q-0.796875 -1.0625 -2.03125 -1.703125q-1.234375 -0.65625 -2.9375 -0.65625q-0.78125 0 -1.5 0.1875q-0.703125 0.171875 -1.3125 0.46875q-0.625 0.3125 -1.15625 0.734375q-0.53125 0.40625 -0.9375 0.890625q0.09375 -1.5 0.59375 -2.921875q0.515625 -1.421875 1.5 -2.453125q0.9375 -0.984375 2.375 -1.5625q1.4375 -0.59375 3.5 -0.59375l0.25 0l0 -2.59375zm-3.78125 10.25q1.046875 0 1.828125 0.4375q0.78125 0.4375 1.296875 1.171875q0.515625 0.734375 0.765625 1.6875q0.25 0.9375 0.25 1.9375q0 1.125 -0.28125 2.09375q-0.265625 0.953125 -0.796875 1.640625q-0.546875 0.68748474 -1.328125 1.0781097q-0.78125 0.390625 -1.796875 0.390625q-0.875 0 -1.671875 -0.40625q-0.796875 -0.421875 -1.40625 -1.2187347q-0.609375 -0.796875 -0.96875 -1.953125q-0.359375 -1.171875 -0.359375 -2.671875l0 -0.96875q0.265625 -0.71875 0.71875 -1.3125q0.453125 -0.59375 1.046875 -1.015625q0.59375 -0.421875 1.28125 -0.65625q0.6875 -0.234375 1.421875 -0.234375zm26.609375 3.8125l0 -5.328125q0 -2.171875 -0.5 -3.84375q-0.5 -1.6875 -1.4375 -2.84375q-0.953125 -1.15625 -2.328125 -1.75q-1.359375 -0.609375 -3.109375 -0.609375q-1.734375 0 -3.109375 0.609375q-1.359375 0.59375 -2.296875 1.75q-0.953125 1.15625 -1.453125 2.84375q-0.5 1.671875 -0.5 3.84375l0 5.328125q0 2.171875 0.5 3.859375q0.5 1.671875 1.453125 2.8124847q0.953125 1.171875 2.328125 1.765625q1.375 0.578125 3.109375 0.578125q1.75 0 3.109375 -0.59375q1.359375 -0.59375 2.296875 -1.75q0.9375 -1.1406097 1.4375 -2.8124847q0.5 -1.6875 0.5 -3.859375zm-11.828125 -0.578125q0 -0.40625 0 -0.796875q0 -0.390625 0 -0.78125l0 -3.8125q0 -1.59375 0.3125 -2.796875q0.328125 -1.21875 0.984375 -1.984375q0.546875 -0.609375 1.328125 -0.921875q0.796875 -0.328125 1.828125 -0.328125q1.015625 0 1.78125 0.296875q0.78125 0.296875 1.3125 0.890625q0.546875 0.578125 0.859375 1.453125q0.328125 0.859375 0.453125 1.984375l-8.859375 6.796875zm8.921875 1.1875q0 1.671875 -0.34375 2.90625q-0.328125 1.234375 -1.046875 2.0q-0.53125 0.56248474 -1.296875 0.85935974q-0.765625 0.296875 -1.75 0.296875q-0.9375 0 -1.6875 -0.265625q-0.75 -0.28125 -1.28125 -0.81248474q-0.578125 -0.5625 -0.9375 -1.421875q-0.359375 -0.875 -0.5 -2.015625l8.84375 -6.765625q0 0.4375 0 1.109375q0 0.65625 0 0.890625l0 3.21875z" fill-rule="nonzero"/><path fill="#000000" d="m561.27356 250.3838l0 -5.328125q0 -2.171875 -0.5 -3.84375q-0.5 -1.6875 -1.4375 -2.84375q-0.953125 -1.15625 -2.328125 -1.75q-1.359375 -0.609375 -3.109375 -0.609375q-1.734375 0 -3.109375 0.609375q-1.359375 0.59375 -2.296875 1.75q-0.953125 1.15625 -1.453125 2.84375q-0.5 1.671875 -0.5 3.84375l0 5.328125q0 2.171875 0.5 3.859375q0.5 1.671875 1.453125 2.8124847q0.953125 1.171875 2.328125 1.765625q1.375 0.578125 3.109375 0.578125q1.75 0 3.109375 -0.59375q1.359375 -0.59375 2.296875 -1.75q0.9375 -1.1406097 1.4375 -2.8124847q0.5 -1.6875 0.5 -3.859375zm-11.828125 -0.578125q0 -0.40625 0 -0.796875q0 -0.390625 0 -0.78125l0 -3.8125q0 -1.59375 0.3125 -2.796875q0.328125 -1.21875 0.984375 -1.984375q0.546875 -0.609375 1.328125 -0.921875q0.796875 -0.328125 1.828125 -0.328125q1.015625 0 1.78125 0.296875q0.78125 0.296875 1.3125 0.890625q0.546875 0.578125 0.859375 1.453125q0.328125 0.859375 0.453125 1.984375l-8.859375 6.796875zm8.921875 1.1875q0 1.671875 -0.34375 2.90625q-0.328125 1.234375 -1.046875 2.0q-0.53125 0.56248474 -1.296875 0.85935974q-0.765625 0.296875 -1.75 0.296875q-0.9375 0 -1.6875 -0.265625q-0.75 -0.28125 -1.28125 -0.81248474q-0.578125 -0.5625 -0.9375 -1.421875q-0.359375 -0.875 -0.5 -2.015625l8.84375 -6.765625q0 0.4375 0 1.109375q0 0.65625 0 0.890625l0 3.21875zm14.8125 -2.546875l-4.46875 -6.265625l-3.34375 0l6.296875 8.359375l-6.46875 8.54686l3.375 0l4.671875 -6.4374847l4.671875 6.4374847l3.34375 0l-6.46875 -8.54686l6.296875 -8.359375l-3.390625 0l-4.515625 6.265625zm26.625 -10.484375l0 -1.625l-15.375 0l0 2.53125l12.3125 0l-9.390625 20.218735l3.03125 0l9.421875 -21.124985zm19.078125 12.421875l0 -5.328125q0 -2.171875 -0.5 -3.84375q-0.5 -1.6875 -1.4375 -2.84375q-0.953125 -1.15625 -2.328125 -1.75q-1.359375 -0.609375 -3.109375 -0.609375q-1.734375 0 -3.109375 0.609375q-1.359375 0.59375 -2.296875 1.75q-0.953125 1.15625 -1.453125 2.84375q-0.5 1.671875 -0.5 3.84375l0 5.328125q0 2.171875 0.5 3.859375q0.5 1.671875 1.453125 2.8124847q0.953125 1.171875 2.328125 1.765625q1.375 0.578125 3.109375 0.578125q1.75 0 3.109375 -0.59375q1.359375 -0.59375 2.296875 -1.75q0.9375 -1.1406097 1.4375 -2.8124847q0.5 -1.6875 0.5 -3.859375zm-11.828125 -0.578125q0 -0.40625 0 -0.796875q0 -0.390625 0 -0.78125l0 -3.8125q0 -1.59375 0.3125 -2.796875q0.328125 -1.21875 0.984375 -1.984375q0.546875 -0.609375 1.328125 -0.921875q0.796875 -0.328125 1.828125 -0.328125q1.015625 0 1.78125 0.296875q0.78125 0.296875 1.3125 0.890625q0.546875 0.578125 0.859375 1.453125q0.328125 0.859375 0.453125 1.984375l-8.859375 6.796875zm8.921875 1.1875q0 1.671875 -0.34375 2.90625q-0.328125 1.234375 -1.046875 2.0q-0.53125 0.56248474 -1.296875 0.85935974q-0.765625 0.296875 -1.75 0.296875q-0.9375 0 -1.6875 -0.265625q-0.75 -0.28125 -1.28125 -0.81248474q-0.578125 -0.5625 -0.9375 -1.421875q-0.359375 -0.875 -0.5 -2.015625l8.84375 -6.765625q0 0.4375 0 1.109375q0 0.65625 0 0.890625l0 3.21875z" fill-rule="nonzero"/><path fill="#000000" d="m184.08719 310.92188l0 -5.328125q0 -2.171875 -0.5 -3.84375q-0.5 -1.6875 -1.4375 -2.84375q-0.953125 -1.15625 -2.328125 -1.75q-1.359375 -0.609375 -3.109375 -0.609375q-1.734375 0 -3.109375 0.609375q-1.359375 0.59375 -2.296875 1.75q-0.953125 1.15625 -1.453125 2.84375q-0.5 1.671875 -0.5 3.84375l0 5.328125q0 2.171875 0.5 3.859375q0.5 1.671875 1.453125 2.8125q0.953125 1.171875 2.328125 1.765625q1.375 0.578125 3.109375 0.578125q1.75 0 3.109375 -0.59375q1.359375 -0.59375 2.296875 -1.75q0.9375 -1.140625 1.4375 -2.8125q0.5 -1.6875 0.5 -3.859375zm-11.828125 -0.578125q0 -0.40625 0 -0.796875q0 -0.390625 0 -0.78125l0 -3.8125q0 -1.59375 0.3125 -2.796875q0.328125 -1.21875 0.984375 -1.984375q0.546875 -0.609375 1.328125 -0.921875q0.796875 -0.328125 1.828125 -0.328125q1.015625 0 1.78125 0.296875q0.78125 0.296875 1.3125 0.890625q0.546875 0.578125 0.859375 1.453125q0.328125 0.859375 0.453125 1.984375l-8.859375 6.796875zm8.921875 1.1875q0 1.671875 -0.34375 2.90625q-0.328125 1.234375 -1.046875 2.0q-0.53125 0.5625 -1.296875 0.859375q-0.765625 0.296875 -1.75 0.296875q-0.9375 0 -1.6875 -0.265625q-0.75 -0.28125 -1.28125 -0.8125q-0.578125 -0.5625 -0.9375 -1.421875q-0.359375 -0.875 -0.5 -2.015625l8.84375 -6.765625q0 0.4375 0 1.109375q0 0.65625 0 0.890625l0 3.21875zm14.8125 -2.546875l-4.46875 -6.265625l-3.34375 0l6.296875 8.359375l-6.46875 8.546875l3.375 0l4.671875 -6.4375l4.671875 6.4375l3.34375 0l-6.46875 -8.546875l6.296875 -8.359375l-3.390625 0l-4.515625 6.265625zm26.21875 -6.171875q0 -1.484375 -0.515625 -2.640625q-0.515625 -1.171875 -1.421875 -1.96875q-0.90625 -0.796875 -2.140625 -1.21875q-1.234375 -0.421875 -2.671875 -0.421875q-1.453125 0 -2.6875 0.421875q-1.21875 0.421875 -2.09375 1.21875q-0.890625 0.796875 -1.390625 1.96875q-0.5 1.15625 -0.5 2.640625q0 0.84375 0.234375 1.609375q0.234375 0.765625 0.65625 1.40625q0.421875 0.65625 1.03125 1.1875q0.609375 0.515625 1.359375 0.890625q-0.875 0.375 -1.578125 0.9375q-0.703125 0.5625 -1.203125 1.265625q-0.5 0.71875 -0.765625 1.578125q-0.265625 0.84375 -0.265625 1.796875q0 1.5625 0.5625 2.765625q0.5625 1.203125 1.546875 2.015625q0.96875 0.828125 2.28125 1.25q1.328125 0.421875 2.859375 0.421875q1.5 0 2.8125 -0.421875q1.3125 -0.4375 2.296875 -1.265625q0.96875 -0.8125 1.53125 -2.015625q0.578125 -1.203125 0.578125 -2.75q0 -0.953125 -0.28125 -1.796875q-0.265625 -0.84375 -0.765625 -1.5625q-0.515625 -0.71875 -1.234375 -1.265625q-0.703125 -0.5625 -1.578125 -0.9375q0.5 -0.25 0.9375 -0.5625q0.4375 -0.3125 0.796875 -0.671875q0.75 -0.75 1.171875 -1.734375q0.421875 -1.0 0.4375 -2.140625zm-2.375 10.609375q0 0.984375 -0.328125 1.765625q-0.3125 0.765625 -0.875 1.296875q-0.578125 0.53125 -1.375 0.8125q-0.796875 0.28125 -1.75 0.28125q-1.0 0 -1.8125 -0.28125q-0.796875 -0.28125 -1.359375 -0.8125q-0.5625 -0.53125 -0.875 -1.296875q-0.296875 -0.78125 -0.296875 -1.765625q0 -0.953125 0.296875 -1.75q0.3125 -0.796875 0.875 -1.375q0.5625 -0.5625 1.359375 -0.875q0.796875 -0.3125 1.78125 -0.3125q0.953125 0 1.75 0.3125q0.8125 0.3125 1.390625 0.875q0.578125 0.578125 0.890625 1.375q0.328125 0.796875 0.328125 1.75zm-0.53125 -10.5625q0 0.875 -0.28125 1.59375q-0.28125 0.71875 -0.78125 1.21875q-0.515625 0.515625 -1.21875 0.796875q-0.703125 0.265625 -1.53125 0.265625q-0.84375 0 -1.546875 -0.265625q-0.6875 -0.28125 -1.1875 -0.796875q-0.515625 -0.5 -0.796875 -1.203125q-0.265625 -0.71875 -0.265625 -1.609375q0 -0.890625 0.265625 -1.609375q0.28125 -0.734375 0.78125 -1.25q0.5 -0.515625 1.1875 -0.78125q0.6875 -0.28125 1.53125 -0.28125q0.84375 0 1.546875 0.296875q0.703125 0.28125 1.21875 0.796875q0.5 0.53125 0.78125 1.25q0.296875 0.71875 0.296875 1.578125zm22.390625 8.0625l0 -5.328125q0 -2.171875 -0.5 -3.84375q-0.5 -1.6875 -1.4375 -2.84375q-0.953125 -1.15625 -2.328125 -1.75q-1.359375 -0.609375 -3.109375 -0.609375q-1.734375 0 -3.109375 0.609375q-1.359375 0.59375 -2.296875 1.75q-0.953125 1.15625 -1.453125 2.84375q-0.5 1.671875 -0.5 3.84375l0 5.328125q0 2.171875 0.5 3.859375q0.5 1.671875 1.453125 2.8125q0.953125 1.171875 2.328125 1.765625q1.375 0.578125 3.109375 0.578125q1.75 0 3.109375 -0.59375q1.359375 -0.59375 2.296875 -1.75q0.9375 -1.140625 1.4375 -2.8125q0.5 -1.6875 0.5 -3.859375zm-11.828125 -0.578125q0 -0.40625 0 -0.796875q0 -0.390625 0 -0.78125l0 -3.8125q0 -1.59375 0.3125 -2.796875q0.328125 -1.21875 0.984375 -1.984375q0.546875 -0.609375 1.328125 -0.921875q0.796875 -0.328125 1.828125 -0.328125q1.015625 0 1.78125 0.296875q0.78125 0.296875 1.3125 0.890625q0.546875 0.578125 0.859375 1.453125q0.328125 0.859375 0.453125 1.984375l-8.859375 6.796875zm8.921875 1.1875q0 1.671875 -0.34375 2.90625q-0.328125 1.234375 -1.046875 2.0q-0.53125 0.5625 -1.296875 0.859375q-0.765625 0.296875 -1.75 0.296875q-0.9375 0 -1.6875 -0.265625q-0.75 -0.28125 -1.28125 -0.8125q-0.578125 -0.5625 -0.9375 -1.421875q-0.359375 -0.875 -0.5 -2.015625l8.84375 -6.765625q0 0.4375 0 1.109375q0 0.65625 0 0.890625l0 3.21875z" fill-rule="nonzero"/><path fill="#000000" d="m561.27356 310.92188l0 -5.328125q0 -2.171875 -0.5 -3.84375q-0.5 -1.6875 -1.4375 -2.84375q-0.953125 -1.15625 -2.328125 -1.75q-1.359375 -0.609375 -3.109375 -0.609375q-1.734375 0 -3.109375 0.609375q-1.359375 0.59375 -2.296875 1.75q-0.953125 1.15625 -1.453125 2.84375q-0.5 1.671875 -0.5 3.84375l0 5.328125q0 2.171875 0.5 3.859375q0.5 1.671875 1.453125 2.8125q0.953125 1.171875 2.328125 1.765625q1.375 0.578125 3.109375 0.578125q1.75 0 3.109375 -0.59375q1.359375 -0.59375 2.296875 -1.75q0.9375 -1.140625 1.4375 -2.8125q0.5 -1.6875 0.5 -3.859375zm-11.828125 -0.578125q0 -0.40625 0 -0.796875q0 -0.390625 0 -0.78125l0 -3.8125q0 -1.59375 0.3125 -2.796875q0.328125 -1.21875 0.984375 -1.984375q0.546875 -0.609375 1.328125 -0.921875q0.796875 -0.328125 1.828125 -0.328125q1.015625 0 1.78125 0.296875q0.78125 0.296875 1.3125 0.890625q0.546875 0.578125 0.859375 1.453125q0.328125 0.859375 0.453125 1.984375l-8.859375 6.796875zm8.921875 1.1875q0 1.671875 -0.34375 2.90625q-0.328125 1.234375 -1.046875 2.0q-0.53125 0.5625 -1.296875 0.859375q-0.765625 0.296875 -1.75 0.296875q-0.9375 0 -1.6875 -0.265625q-0.75 -0.28125 -1.28125 -0.8125q-0.578125 -0.5625 -0.9375 -1.421875q-0.359375 -0.875 -0.5 -2.015625l8.84375 -6.765625q0 0.4375 0 1.109375q0 0.65625 0 0.890625l0 3.21875zm14.8125 -2.546875l-4.46875 -6.265625l-3.34375 0l6.296875 8.359375l-6.46875 8.546875l3.375 0l4.671875 -6.4375l4.671875 6.4375l3.34375 0l-6.46875 -8.546875l6.296875 -8.359375l-3.390625 0l-4.515625 6.265625zm15.328125 8.078125l-0.296875 0l0 2.578125l0.296875 0q2.8125 0 4.765625 -0.765625q1.96875 -0.78125 3.078125 -2.03125q1.84375 -2.0625 2.40625 -4.71875q0.5625 -2.671875 0.5625 -5.3125l0 -1.046875q0 -1.859375 -0.515625 -3.71875q-0.515625 -1.875 -1.546875 -3.125q-0.875 -1.0625 -2.171875 -1.703125q-1.28125 -0.65625 -3.03125 -0.65625q-1.75 0 -3.078125 0.640625q-1.3125 0.625 -2.1875 1.6875q-0.890625 1.078125 -1.34375 2.515625q-0.4375 1.421875 -0.4375 3.03125q0 1.375 0.375 2.734375q0.375 1.359375 1.171875 2.4375q0.796875 1.078125 2.015625 1.75q1.234375 0.65625 2.921875 0.65625q0.875 0 1.609375 -0.171875q0.75 -0.1875 1.359375 -0.5q0.609375 -0.3125 1.09375 -0.71875q0.484375 -0.421875 0.859375 -0.890625l0 0.03125q-0.078125 1.4375 -0.453125 2.78125q-0.375 1.34375 -1.453125 2.515625q-0.890625 0.953125 -2.359375 1.484375q-1.453125 0.515625 -3.640625 0.515625zm3.453125 -7.4375q-1.046875 0 -1.828125 -0.453125q-0.765625 -0.46875 -1.265625 -1.21875q-0.515625 -0.75 -0.765625 -1.703125q-0.25 -0.96875 -0.25 -1.96875q0 -1.125 0.28125 -2.09375q0.28125 -0.984375 0.828125 -1.703125q0.53125 -0.703125 1.3125 -1.109375q0.78125 -0.40625 1.796875 -0.40625q0.890625 0 1.671875 0.4375q0.796875 0.4375 1.40625 1.25q0.59375 0.828125 0.9375 2.015625q0.359375 1.1875 0.359375 2.703125l0 0.9375q-0.265625 0.734375 -0.734375 1.34375q-0.453125 0.59375 -1.03125 1.03125q-0.59375 0.453125 -1.296875 0.703125q-0.6875 0.234375 -1.421875 0.234375zm26.921875 1.296875l0 -5.328125q0 -2.171875 -0.5 -3.84375q-0.5 -1.6875 -1.4375 -2.84375q-0.953125 -1.15625 -2.328125 -1.75q-1.359375 -0.609375 -3.109375 -0.609375q-1.734375 0 -3.109375 0.609375q-1.359375 0.59375 -2.296875 1.75q-0.953125 1.15625 -1.453125 2.84375q-0.5 1.671875 -0.5 3.84375l0 5.328125q0 2.171875 0.5 3.859375q0.5 1.671875 1.453125 2.8125q0.953125 1.171875 2.328125 1.765625q1.375 0.578125 3.109375 0.578125q1.75 0 3.109375 -0.59375q1.359375 -0.59375 2.296875 -1.75q0.9375 -1.140625 1.4375 -2.8125q0.5 -1.6875 0.5 -3.859375zm-11.828125 -0.578125q0 -0.40625 0 -0.796875q0 -0.390625 0 -0.78125l0 -3.8125q0 -1.59375 0.3125 -2.796875q0.328125 -1.21875 0.984375 -1.984375q0.546875 -0.609375 1.328125 -0.921875q0.796875 -0.328125 1.828125 -0.328125q1.015625 0 1.78125 0.296875q0.78125 0.296875 1.3125 0.890625q0.546875 0.578125 0.859375 1.453125q0.328125 0.859375 0.453125 1.984375l-8.859375 6.796875zm8.921875 1.1875q0 1.671875 -0.34375 2.90625q-0.328125 1.234375 -1.046875 2.0q-0.53125 0.5625 -1.296875 0.859375q-0.765625 0.296875 -1.75 0.296875q-0.9375 0 -1.6875 -0.265625q-0.75 -0.28125 -1.28125 -0.8125q-0.578125 -0.5625 -0.9375 -1.421875q-0.359375 -0.875 -0.5 -2.015625l8.84375 -6.765625q0 0.4375 0 1.109375q0 0.65625 0 0.890625l0 3.21875z" fill-rule="nonzero"/><path fill="#000000" d="m184.08719 371.45993l0 -5.328125q0 -2.171875 -0.5 -3.84375q-0.5 -1.6875 -1.4375 -2.84375q-0.953125 -1.15625 -2.328125 -1.75q-1.359375 -0.609375 -3.109375 -0.609375q-1.734375 0 -3.109375 0.609375q-1.359375 0.59375 -2.296875 1.75q-0.953125 1.15625 -1.453125 2.84375q-0.5 1.671875 -0.5 3.84375l0 5.328125q0 2.171875 0.5 3.859375q0.5 1.671875 1.453125 2.8125q0.953125 1.171875 2.328125 1.765625q1.375 0.578125 3.109375 0.578125q1.75 0 3.109375 -0.59375q1.359375 -0.59375 2.296875 -1.75q0.9375 -1.140625 1.4375 -2.8125q0.5 -1.6875 0.5 -3.859375zm-11.828125 -0.578125q0 -0.40625 0 -0.796875q0 -0.390625 0 -0.78125l0 -3.8125q0 -1.59375 0.3125 -2.796875q0.328125 -1.21875 0.984375 -1.984375q0.546875 -0.609375 1.328125 -0.921875q0.796875 -0.328125 1.828125 -0.328125q1.015625 0 1.78125 0.296875q0.78125 0.296875 1.3125 0.890625q0.546875 0.578125 0.859375 1.453125q0.328125 0.859375 0.453125 1.984375l-8.859375 6.796875zm8.921875 1.1875q0 1.671875 -0.34375 2.90625q-0.328125 1.234375 -1.046875 2.0q-0.53125 0.5625 -1.296875 0.859375q-0.765625 0.296875 -1.75 0.296875q-0.9375 0 -1.6875 -0.265625q-0.75 -0.28125 -1.28125 -0.8125q-0.578125 -0.5625 -0.9375 -1.421875q-0.359375 -0.875 -0.5 -2.015625l8.84375 -6.765625q0 0.4375 0 1.109375q0 0.65625 0 0.890625l0 3.21875zm14.8125 -2.546875l-4.46875 -6.265625l-3.34375 0l6.296875 8.359375l-6.46875 8.546875l3.375 0l4.671875 -6.4375l4.671875 6.4375l3.34375 0l-6.46875 -8.546875l6.296875 -8.359375l-3.390625 0l-4.515625 6.265625zm23.328125 10.640625l3.015625 0l0 -0.25q-0.28125 -0.703125 -0.4375 -1.640625q-0.15625 -0.953125 -0.15625 -1.796875l0 -7.859375q0 -1.421875 -0.515625 -2.484375q-0.515625 -1.0625 -1.40625 -1.78125q-0.90625 -0.703125 -2.140625 -1.046875q-1.234375 -0.359375 -2.671875 -0.359375q-1.578125 0 -2.828125 0.4375q-1.234375 0.4375 -2.09375 1.140625q-0.875 0.71875 -1.34375 1.609375q-0.453125 0.890625 -0.46875 1.8125l2.90625 0q0 -0.53125 0.25 -1.015625q0.265625 -0.5 0.734375 -0.859375q0.46875 -0.359375 1.140625 -0.578125q0.6875 -0.21875 1.546875 -0.21875q0.921875 0 1.65625 0.234375q0.75 0.234375 1.265625 0.65625q0.515625 0.4375 0.796875 1.046875q0.28125 0.609375 0.28125 1.375l0 1.328125l-3.15625 0q-1.765625 0 -3.203125 0.34375q-1.421875 0.34375 -2.4375 1.03125q-1.015625 0.703125 -1.578125 1.75q-0.546875 1.046875 -0.546875 2.4375q0 1.0625 0.40625 1.984375q0.421875 0.90625 1.1875 1.5625q0.75 0.671875 1.828125 1.0625q1.09375 0.390625 2.4375 0.390625q0.828125 0 1.5625 -0.171875q0.734375 -0.171875 1.390625 -0.46875q0.640625 -0.296875 1.171875 -0.6875q0.546875 -0.390625 0.984375 -0.828125q0.046875 0.53125 0.140625 1.03125q0.109375 0.484375 0.28125 0.8125zm-5.109375 -2.203125q-0.84375 0 -1.484375 -0.21875q-0.640625 -0.21875 -1.0625 -0.609375q-0.421875 -0.375 -0.640625 -0.90625q-0.203125 -0.53125 -0.203125 -1.15625q0 -0.65625 0.234375 -1.171875q0.25 -0.515625 0.71875 -0.890625q0.65625 -0.53125 1.765625 -0.78125q1.125 -0.265625 2.625 -0.265625l2.6875 0l0 3.421875q-0.25 0.5 -0.6875 0.96875q-0.4375 0.453125 -1.03125 0.8125q-0.609375 0.359375 -1.34375 0.578125q-0.734375 0.21875 -1.578125 0.21875zm27.484375 -6.5l0 -5.328125q0 -2.171875 -0.5 -3.84375q-0.5 -1.6875 -1.4375 -2.84375q-0.953125 -1.15625 -2.328125 -1.75q-1.359375 -0.609375 -3.109375 -0.609375q-1.734375 0 -3.109375 0.609375q-1.359375 0.59375 -2.296875 1.75q-0.953125 1.15625 -1.453125 2.84375q-0.5 1.671875 -0.5 3.84375l0 5.328125q0 2.171875 0.5 3.859375q0.5 1.671875 1.453125 2.8125q0.953125 1.171875 2.328125 1.765625q1.375 0.578125 3.109375 0.578125q1.75 0 3.109375 -0.59375q1.359375 -0.59375 2.296875 -1.75q0.9375 -1.140625 1.4375 -2.8125q0.5 -1.6875 0.5 -3.859375zm-11.828125 -0.578125q0 -0.40625 0 -0.796875q0 -0.390625 0 -0.78125l0 -3.8125q0 -1.59375 0.3125 -2.796875q0.328125 -1.21875 0.984375 -1.984375q0.546875 -0.609375 1.328125 -0.921875q0.796875 -0.328125 1.828125 -0.328125q1.015625 0 1.78125 0.296875q0.78125 0.296875 1.3125 0.890625q0.546875 0.578125 0.859375 1.453125q0.328125 0.859375 0.453125 1.984375l-8.859375 6.796875zm8.921875 1.1875q0 1.671875 -0.34375 2.90625q-0.328125 1.234375 -1.046875 2.0q-0.53125 0.5625 -1.296875 0.859375q-0.765625 0.296875 -1.75 0.296875q-0.9375 0 -1.6875 -0.265625q-0.75 -0.28125 -1.28125 -0.8125q-0.578125 -0.5625 -0.9375 -1.421875q-0.359375 -0.875 -0.5 -2.015625l8.84375 -6.765625q0 0.4375 0 1.109375q0 0.65625 0 0.890625l0 3.21875z" fill-rule="nonzero"/><path fill="#000000" d="m561.27356 371.45993l0 -5.328125q0 -2.171875 -0.5 -3.84375q-0.5 -1.6875 -1.4375 -2.84375q-0.953125 -1.15625 -2.328125 -1.75q-1.359375 -0.609375 -3.109375 -0.609375q-1.734375 0 -3.109375 0.609375q-1.359375 0.59375 -2.296875 1.75q-0.953125 1.15625 -1.453125 2.84375q-0.5 1.671875 -0.5 3.84375l0 5.328125q0 2.171875 0.5 3.859375q0.5 1.671875 1.453125 2.8125q0.953125 1.171875 2.328125 1.765625q1.375 0.578125 3.109375 0.578125q1.75 0 3.109375 -0.59375q1.359375 -0.59375 2.296875 -1.75q0.9375 -1.140625 1.4375 -2.8125q0.5 -1.6875 0.5 -3.859375zm-11.828125 -0.578125q0 -0.40625 0 -0.796875q0 -0.390625 0 -0.78125l0 -3.8125q0 -1.59375 0.3125 -2.796875q0.328125 -1.21875 0.984375 -1.984375q0.546875 -0.609375 1.328125 -0.921875q0.796875 -0.328125 1.828125 -0.328125q1.015625 0 1.78125 0.296875q0.78125 0.296875 1.3125 0.890625q0.546875 0.578125 0.859375 1.453125q0.328125 0.859375 0.453125 1.984375l-8.859375 6.796875zm8.921875 1.1875q0 1.671875 -0.34375 2.90625q-0.328125 1.234375 -1.046875 2.0q-0.53125 0.5625 -1.296875 0.859375q-0.765625 0.296875 -1.75 0.296875q-0.9375 0 -1.6875 -0.265625q-0.75 -0.28125 -1.28125 -0.8125q-0.578125 -0.5625 -0.9375 -1.421875q-0.359375 -0.875 -0.5 -2.015625l8.84375 -6.765625q0 0.4375 0 1.109375q0 0.65625 0 0.890625l0 3.21875zm14.8125 -2.546875l-4.46875 -6.265625l-3.34375 0l6.296875 8.359375l-6.46875 8.546875l3.375 0l4.671875 -6.4375l4.671875 6.4375l3.34375 0l-6.46875 -8.546875l6.296875 -8.359375l-3.390625 0l-4.515625 6.265625zm26.546875 2.375l0 -0.328125q0 -1.328125 -0.21875 -2.515625q-0.21875 -1.203125 -0.640625 -2.1875q-0.40625 -0.875 -0.9375 -1.578125q-0.53125 -0.71875 -1.203125 -1.21875q-0.75 -0.53125 -1.671875 -0.828125q-0.921875 -0.296875 -2.015625 -0.296875q-0.875 0 -1.625 0.171875q-0.75 0.171875 -1.375 0.5q-0.5 0.265625 -0.9375 0.640625q-0.4375 0.359375 -0.796875 0.8125l0 -8.90625l-2.890625 0l0 24.0l2.65625 0l0.140625 -1.921875q0.28125 0.359375 0.59375 0.65625q0.3125 0.296875 0.65625 0.546875q0.71875 0.5 1.609375 0.765625q0.90625 0.265625 2.0 0.265625q0.953125 0 1.765625 -0.234375q0.828125 -0.234375 1.515625 -0.65625q0.953125 -0.609375 1.625 -1.53125q0.6875 -0.9375 1.109375 -2.109375q0.3125 -0.890625 0.46875 -1.90625q0.171875 -1.03125 0.171875 -2.140625zm-2.890625 -0.328125l0 0.328125q0 0.75 -0.09375 1.46875q-0.09375 0.71875 -0.296875 1.34375q-0.25 0.828125 -0.671875 1.5q-0.421875 0.671875 -1.046875 1.109375q-0.46875 0.34375 -1.0625 0.53125q-0.59375 0.171875 -1.3125 0.171875q-0.75 0 -1.375 -0.1875q-0.625 -0.203125 -1.125 -0.5625q-0.5 -0.359375 -0.890625 -0.828125q-0.375 -0.484375 -0.65625 -1.046875l0 -7.390625q0.265625 -0.5625 0.640625 -1.03125q0.390625 -0.484375 0.890625 -0.84375q0.484375 -0.34375 1.109375 -0.53125q0.625 -0.203125 1.375 -0.203125q0.6875 0 1.25 0.15625q0.5625 0.15625 1.015625 0.4375q0.65625 0.390625 1.109375 1.078125q0.453125 0.6875 0.734375 1.515625q0.203125 0.671875 0.296875 1.4375q0.109375 0.75 0.109375 1.546875zm22.046875 -0.109375l0 -5.328125q0 -2.171875 -0.5 -3.84375q-0.5 -1.6875 -1.4375 -2.84375q-0.953125 -1.15625 -2.328125 -1.75q-1.359375 -0.609375 -3.109375 -0.609375q-1.734375 0 -3.109375 0.609375q-1.359375 0.59375 -2.296875 1.75q-0.953125 1.15625 -1.453125 2.84375q-0.5 1.671875 -0.5 3.84375l0 5.328125q0 2.171875 0.5 3.859375q0.5 1.671875 1.453125 2.8125q0.953125 1.171875 2.328125 1.765625q1.375 0.578125 3.109375 0.578125q1.75 0 3.109375 -0.59375q1.359375 -0.59375 2.296875 -1.75q0.9375 -1.140625 1.4375 -2.8125q0.5 -1.6875 0.5 -3.859375zm-11.828125 -0.578125q0 -0.40625 0 -0.796875q0 -0.390625 0 -0.78125l0 -3.8125q0 -1.59375 0.3125 -2.796875q0.328125 -1.21875 0.984375 -1.984375q0.546875 -0.609375 1.328125 -0.921875q0.796875 -0.328125 1.828125 -0.328125q1.015625 0 1.78125 0.296875q0.78125 0.296875 1.3125 0.890625q0.546875 0.578125 0.859375 1.453125q0.328125 0.859375 0.453125 1.984375l-8.859375 6.796875zm8.921875 1.1875q0 1.671875 -0.34375 2.90625q-0.328125 1.234375 -1.046875 2.0q-0.53125 0.5625 -1.296875 0.859375q-0.765625 0.296875 -1.75 0.296875q-0.9375 0 -1.6875 -0.265625q-0.75 -0.28125 -1.28125 -0.8125q-0.578125 -0.5625 -0.9375 -1.421875q-0.359375 -0.875 -0.5 -2.015625l8.84375 -6.765625q0 0.4375 0 1.109375q0 0.65625 0 0.890625l0 3.21875z" fill-rule="nonzero"/><path fill="#000000" d="m186.25125 419.7011l-2.90625 0l0 4.09375l-4.4375 0l0 2.234375l4.4375 0l0 9.1875q0 1.5625 0.40625 2.671875q0.421875 1.09375 1.140625 1.78125q0.71875 0.703125 1.6875 1.03125q0.984375 0.3125 2.109375 0.3125q0.671875 0 1.34375 -0.0625q0.6875 -0.0625 1.296875 -0.1875q0.609375 -0.109375 1.125 -0.265625q0.515625 -0.171875 0.875 -0.390625l-0.40625 -2.046875q-0.265625 0.0625 -0.6875 0.15625q-0.40625 0.078125 -0.875 0.15625q-0.484375 0.078125 -0.984375 0.140625q-0.5 0.046875 -0.96875 0.046875q-0.640625 0 -1.21875 -0.15625q-0.5625 -0.15625 -1.0 -0.546875q-0.4375 -0.375 -0.6875 -1.015625q-0.25 -0.640625 -0.25 -1.625l0 -9.1875l6.4375 0l0 -2.234375l-6.4375 0l0 -4.09375zm11.546875 12.390625l0 0.34375q0 1.828125 0.53125 3.390625q0.53125 1.5625 1.53125 2.71875q0.984375 1.15625 2.40625 1.8125q1.4375 0.65625 3.234375 0.65625q1.78125 0 3.203125 -0.65625q1.421875 -0.65625 2.421875 -1.8125q0.984375 -1.15625 1.515625 -2.71875q0.53125 -1.5625 0.53125 -3.390625l0 -0.34375q0 -1.828125 -0.53125 -3.390625q-0.53125 -1.578125 -1.515625 -2.734375q-1.0 -1.15625 -2.4375 -1.8125q-1.421875 -0.671875 -3.21875 -0.671875q-1.78125 0 -3.203125 0.671875q-1.421875 0.65625 -2.40625 1.8125q-1.0 1.15625 -1.53125 2.734375q-0.53125 1.5625 -0.53125 3.390625zm2.890625 0.34375l0 -0.34375q0 -1.234375 0.296875 -2.359375q0.296875 -1.140625 0.90625 -2.0q0.59375 -0.859375 1.484375 -1.359375q0.890625 -0.515625 2.09375 -0.515625q1.203125 0 2.09375 0.515625q0.90625 0.5 1.515625 1.359375q0.59375 0.859375 0.890625 2.0q0.3125 1.125 0.3125 2.359375l0 0.34375q0 1.25 -0.296875 2.390625q-0.296875 1.125 -0.890625 1.984375q-0.609375 0.859375 -1.515625 1.359375q-0.890625 0.5 -2.078125 0.5q-1.203125 0 -2.109375 -0.5q-0.90625 -0.5 -1.5 -1.359375q-0.609375 -0.859375 -0.90625 -1.984375q-0.296875 -1.140625 -0.296875 -2.390625zm17.109375 14.765625l2.890625 0l0 -8.125q0.3125 0.34375 0.671875 0.640625q0.359375 0.28125 0.765625 0.515625q0.671875 0.375 1.5 0.578125q0.84375 0.203125 1.8125 0.203125q1.59375 0 2.828125 -0.65625q1.25 -0.65625 2.09375 -1.8125q0.84375 -1.15625 1.28125 -2.71875q0.4375 -1.578125 0.4375 -3.390625l0 -0.328125q0 -1.890625 -0.4375 -3.46875q-0.4375 -1.59375 -1.28125 -2.734375q-0.84375 -1.140625 -2.09375 -1.78125q-1.25 -0.640625 -2.875 -0.640625q-0.921875 0 -1.734375 0.203125q-0.796875 0.1875 -1.453125 0.5625q-0.46875 0.25 -0.875 0.609375q-0.40625 0.34375 -0.75 0.78125l-0.140625 -1.84375l-2.640625 0l0 23.40625zm11.390625 -15.09375l0 0.328125q0 1.234375 -0.28125 2.359375q-0.265625 1.125 -0.828125 1.984375q-0.5625 0.859375 -1.4375 1.375q-0.875 0.5 -2.078125 0.5q-0.75 0 -1.375 -0.1875q-0.609375 -0.1875 -1.109375 -0.515625q-0.4375 -0.28125 -0.78125 -0.6875q-0.34375 -0.40625 -0.609375 -0.875l0 -8.140625q0.296875 -0.53125 0.6875 -0.96875q0.390625 -0.4375 0.890625 -0.734375q0.453125 -0.296875 1.015625 -0.453125q0.578125 -0.15625 1.25 -0.15625q1.21875 0 2.09375 0.5q0.875 0.5 1.453125 1.34375q0.5625 0.859375 0.828125 1.984375q0.28125 1.109375 0.28125 2.34375z" fill-rule="nonzero"/><path fill="#000000" d="m451.42978 416.7011l0 2.515625l5.75 0l0 18.984375l-5.75 0l0 2.5l14.15625 0l0 -2.5l-5.515625 0l0 -21.5l-8.640625 0zm29.859375 24.0l3.015625 0l0 -0.25q-0.28125 -0.703125 -0.4375 -1.640625q-0.15625 -0.953125 -0.15625 -1.796875l0 -7.859375q0 -1.421875 -0.515625 -2.484375q-0.515625 -1.0625 -1.40625 -1.78125q-0.90625 -0.703125 -2.140625 -1.046875q-1.234375 -0.359375 -2.671875 -0.359375q-1.578125 0 -2.828125 0.4375q-1.234375 0.4375 -2.09375 1.140625q-0.875 0.71875 -1.34375 1.609375q-0.453125 0.890625 -0.46875 1.8125l2.90625 0q0 -0.53125 0.25 -1.015625q0.265625 -0.5 0.734375 -0.859375q0.46875 -0.359375 1.140625 -0.578125q0.6875 -0.21875 1.546875 -0.21875q0.921875 0 1.65625 0.234375q0.75 0.234375 1.265625 0.65625q0.515625 0.4375 0.796875 1.046875q0.28125 0.609375 0.28125 1.375l0 1.328125l-3.15625 0q-1.765625 0 -3.203125 0.34375q-1.421875 0.34375 -2.4375 1.03125q-1.015625 0.703125 -1.578125 1.75q-0.546875 1.046875 -0.546875 2.4375q0 1.0625 0.40625 1.984375q0.421875 0.90625 1.1875 1.5625q0.75 0.671875 1.828125 1.0625q1.09375 0.390625 2.4375 0.390625q0.828125 0 1.5625 -0.171875q0.734375 -0.171875 1.390625 -0.46875q0.640625 -0.296875 1.171875 -0.6875q0.546875 -0.390625 0.984375 -0.828125q0.046875 0.53125 0.140625 1.03125q0.109375 0.484375 0.28125 0.8125zm-5.109375 -2.203125q-0.84375 0 -1.484375 -0.21875q-0.640625 -0.21875 -1.0625 -0.609375q-0.421875 -0.375 -0.640625 -0.90625q-0.203125 -0.53125 -0.203125 -1.15625q0 -0.65625 0.234375 -1.171875q0.25 -0.515625 0.71875 -0.890625q0.65625 -0.53125 1.765625 -0.78125q1.125 -0.265625 2.625 -0.265625l2.6875 0l0 3.421875q-0.25 0.5 -0.6875 0.96875q-0.4375 0.453125 -1.03125 0.8125q-0.609375 0.359375 -1.34375 0.578125q-0.734375 0.21875 -1.578125 0.21875zm24.4375 -2.28125q0 0.40625 -0.15625 0.765625q-0.15625 0.359375 -0.453125 0.65625q-0.484375 0.484375 -1.34375 0.765625q-0.859375 0.265625 -2.015625 0.265625q-0.734375 0 -1.484375 -0.15625q-0.75 -0.15625 -1.359375 -0.53125q-0.625 -0.375 -1.046875 -0.984375q-0.40625 -0.609375 -0.46875 -1.5l-2.890625 0q0 1.078125 0.484375 2.078125q0.5 1.0 1.4375 1.75q0.921875 0.765625 2.265625 1.234375q1.34375 0.453125 3.0625 0.453125q1.5 0 2.765625 -0.359375q1.265625 -0.359375 2.171875 -1.015625q0.90625 -0.65625 1.40625 -1.578125q0.515625 -0.921875 0.515625 -2.046875q0 -1.046875 -0.453125 -1.84375q-0.4375 -0.796875 -1.28125 -1.40625q-0.84375 -0.59375 -2.078125 -1.015625q-1.234375 -0.4375 -2.796875 -0.765625q-1.1875 -0.234375 -1.96875 -0.484375q-0.765625 -0.25 -1.21875 -0.5625q-0.46875 -0.3125 -0.65625 -0.703125q-0.1875 -0.390625 -0.1875 -0.890625q0 -0.484375 0.234375 -0.9375q0.234375 -0.453125 0.703125 -0.796875q0.453125 -0.34375 1.140625 -0.546875q0.703125 -0.203125 1.625 -0.203125q0.890625 0 1.59375 0.25q0.71875 0.25 1.21875 0.65625q0.5 0.40625 0.78125 0.9375q0.28125 0.515625 0.28125 1.0625l2.890625 0q0 -1.109375 -0.484375 -2.0625q-0.46875 -0.96875 -1.34375 -1.6875q-0.875 -0.71875 -2.125 -1.125q-1.25 -0.40625 -2.8125 -0.40625q-1.453125 0 -2.671875 0.390625q-1.203125 0.390625 -2.078125 1.0625q-0.875 0.671875 -1.359375 1.578125q-0.484375 0.890625 -0.484375 1.921875q0 1.046875 0.46875 1.84375q0.46875 0.78125 1.328125 1.359375q0.84375 0.59375 2.03125 1.015625q1.203125 0.421875 2.65625 0.71875q1.1875 0.234375 1.984375 0.53125q0.796875 0.28125 1.28125 0.625q0.484375 0.34375 0.6875 0.765625q0.203125 0.40625 0.203125 0.921875zm14.8125305 -16.515625l-2.90625 0l0 4.09375l-4.4375305 0l0 2.234375l4.4375305 0l0 9.1875q0 1.5625 0.40625 2.671875q0.421875 1.09375 1.140625 1.78125q0.71875 0.703125 1.6875 1.03125q0.984375 0.3125 2.109375 0.3125q0.671875 0 1.34375 -0.0625q0.6875 -0.0625 1.296875 -0.1875q0.609375 -0.109375 1.125 -0.265625q0.515625 -0.171875 0.875 -0.390625l-0.40625 -2.046875q-0.265625 0.0625 -0.6875 0.15625q-0.40625 0.078125 -0.875 0.15625q-0.484375 0.078125 -0.984375 0.140625q-0.5 0.046875 -0.96875 0.046875q-0.640625 0 -1.21875 -0.15625q-0.5625 -0.15625 -1.0 -0.546875q-0.4375 -0.375 -0.6875 -1.015625q-0.25 -0.640625 -0.25 -1.625l0 -9.1875l6.4375 0l0 -2.234375l-6.4375 0l0 -4.09375zm26.390625 23.359375l0 -2.359375l-14.328125 0l0 2.359375l14.328125 0zm16.25 -19.578125q-1.84375 0 -3.296875 0.8125q-1.4375 0.796875 -2.46875 2.1875l-0.015625 -0.421875l-0.125 -2.265625l-2.75 0l0 16.90625l2.90625 0l0 -10.84375q0.28125 -0.78125 0.703125 -1.40625q0.4375 -0.640625 1.015625 -1.078125q0.640625 -0.5 1.5 -0.75q0.859375 -0.265625 1.921875 -0.265625q0.828125 0 1.578125 0.09375q0.765625 0.078125 1.609375 0.265625l0.390625 -2.828125q-0.4375 -0.1875 -1.3125 -0.296875q-0.859375 -0.109375 -1.65625 -0.109375zm15.59375 17.53125q2.46875 0 4.140625 -0.984375q1.6875 -1.0 2.53125 -2.28125l-1.765625 -1.375q-0.796875 1.03125 -2.0 1.65625q-1.203125 0.625 -2.75 0.625q-1.171875 0 -2.140625 -0.4375q-0.96875 -0.4375 -1.65625 -1.203125q-0.671875 -0.71875 -1.0625 -1.65625q-0.375 -0.9375 -0.484375 -2.171875l0 -0.109375l12.078125 0l0 -1.296875q0 -1.765625 -0.453125 -3.28125q-0.4375 -1.515625 -1.34375 -2.640625q-0.90625 -1.109375 -2.28125 -1.734375q-1.359375 -0.640625 -3.1875 -0.640625q-1.453125 0 -2.84375 0.59375q-1.375 0.59375 -2.453125 1.703125q-1.09375 1.125 -1.75 2.75q-0.65625 1.609375 -0.65625 3.65625l0 0.65625q0 1.765625 0.59375 3.265625q0.59375 1.5 1.65625 2.59375q1.0625 1.09375 2.546875 1.703125q1.5 0.609375 3.28125 0.609375zm-0.375 -15.15625q1.109375 0 1.90625 0.40625q0.8125 0.40625 1.34375 1.0625q0.53125 0.65625 0.828125 1.5625q0.296875 0.890625 0.296875 1.671875l0 0.140625l-9.09375 0q0.171875 -1.171875 0.59375 -2.0625q0.4375 -0.90625 1.0625 -1.53125q0.625 -0.609375 1.40625 -0.921875q0.78125 -0.328125 1.65625 -0.328125zm13.4375 -2.0625l-2.59375 0l0 16.90625l2.75 0l0 -13.453125q0.09375 -0.25 0.234375 -0.46875q0.15625 -0.21875 0.359375 -0.390625q0.265625 -0.21875 0.640625 -0.328125q0.390625 -0.125 0.90625 -0.125q0.46875 0 0.8125 0.125q0.359375 0.109375 0.59375 0.359375q0.25 0.265625 0.359375 0.671875q0.125 0.40625 0.125 0.9375l0 12.671875l2.75 0l0 -12.65625q0 -0.09375 0 -0.15625q0 -0.078125 0 -0.15625q0.046875 -0.390625 0.1875 -0.703125q0.140625 -0.328125 0.390625 -0.578125q0.25 -0.234375 0.625 -0.375q0.375 -0.140625 0.890625 -0.140625q0.484375 0 0.84375 0.125q0.375 0.125 0.625 0.375q0.234375 0.265625 0.359375 0.671875q0.125 0.40625 0.125 0.9375l0 12.65625l2.75 0l0 -12.625q0 -1.21875 -0.28125 -2.109375q-0.28125 -0.90625 -0.8125 -1.46875q-0.484375 -0.5 -1.1875 -0.75q-0.703125 -0.265625 -1.578125 -0.265625q-0.640625 0.015625 -1.1875 0.171875q-0.53125 0.15625 -0.96875 0.421875q-0.34375 0.234375 -0.640625 0.546875q-0.296875 0.3125 -0.515625 0.671875q-0.171875 -0.390625 -0.421875 -0.703125q-0.234375 -0.3125 -0.53125 -0.53125q-0.40625 -0.28125 -0.953125 -0.421875q-0.53125 -0.15625 -1.203125 -0.15625q-1.1875 0.015625 -2.03125 0.515625q-0.828125 0.5 -1.34375 1.390625l-0.078125 -1.59375zm28.984375 16.90625l3.015625 0l0 -0.25q-0.28125 -0.703125 -0.4375 -1.640625q-0.15625 -0.953125 -0.15625 -1.796875l0 -7.859375q0 -1.421875 -0.515625 -2.484375q-0.515625 -1.0625 -1.40625 -1.78125q-0.90625 -0.703125 -2.140625 -1.046875q-1.234375 -0.359375 -2.671875 -0.359375q-1.578125 0 -2.828125 0.4375q-1.234375 0.4375 -2.09375 1.140625q-0.875 0.71875 -1.34375 1.609375q-0.453125 0.890625 -0.46875 1.8125l2.90625 0q0 -0.53125 0.25 -1.015625q0.265625 -0.5 0.734375 -0.859375q0.46875 -0.359375 1.140625 -0.578125q0.6875 -0.21875 1.546875 -0.21875q0.921875 0 1.65625 0.234375q0.75 0.234375 1.265625 0.65625q0.515625 0.4375 0.796875 1.046875q0.28125 0.609375 0.28125 1.375l0 1.328125l-3.15625 0q-1.765625 0 -3.203125 0.34375q-1.421875 0.34375 -2.4375 1.03125q-1.015625 0.703125 -1.578125 1.75q-0.546875 1.046875 -0.546875 2.4375q0 1.0625 0.40625 1.984375q0.421875 0.90625 1.1875 1.5625q0.75 0.671875 1.828125 1.0625q1.09375 0.390625 2.4375 0.390625q0.828125 0 1.5625 -0.171875q0.734375 -0.171875 1.390625 -0.46875q0.640625 -0.296875 1.171875 -0.6875q0.546875 -0.390625 0.984375 -0.828125q0.046875 0.53125 0.140625 1.03125q0.109375 0.484375 0.28125 0.8125zm-5.109375 -2.203125q-0.84375 0 -1.484375 -0.21875q-0.640625 -0.21875 -1.0625 -0.609375q-0.421875 -0.375 -0.640625 -0.90625q-0.203125 -0.53125 -0.203125 -1.15625q0 -0.65625 0.234375 -1.171875q0.25 -0.515625 0.71875 -0.890625q0.65625 -0.53125 1.765625 -0.78125q1.125 -0.265625 2.625 -0.265625l2.6875 0l0 3.421875q-0.25 0.5 -0.6875 0.96875q-0.4375 0.453125 -1.03125 0.8125q-0.609375 0.359375 -1.34375 0.578125q-0.734375 0.21875 -1.578125 0.21875zm13.65625 -14.703125l0 2.515625l5.75 0l0 11.890625l-5.75 0l0 2.5l14.15625 0l0 -2.5l-5.515625 0l0 -14.40625l-8.640625 0zm5.375 -4.4375q0 0.703125 0.421875 1.171875q0.4375 0.46875 1.3125 0.46875q0.859375 0 1.296875 -0.46875q0.4375 -0.46875 0.4375 -1.171875q0 -0.390625 -0.125 -0.71875q-0.125 -0.328125 -0.375 -0.546875q-0.203125 -0.203125 -0.515625 -0.3125q-0.3125 -0.125 -0.71875 -0.125q-0.40625 0 -0.734375 0.125q-0.3125 0.109375 -0.515625 0.3125q-0.25 0.234375 -0.375 0.5625q-0.109375 0.328125 -0.109375 0.703125zm13.375 21.34375l2.890625 0l0 -12.125q0.296875 -0.546875 0.6875 -1.0q0.40625 -0.453125 0.875 -0.796875q0.578125 -0.390625 1.265625 -0.609375q0.6875 -0.234375 1.484375 -0.234375q0.921875 0 1.625 0.21875q0.71875 0.21875 1.21875 0.703125q0.484375 0.484375 0.734375 1.265625q0.25 0.78125 0.25 1.90625l0 10.671875l2.890625 0l0 -10.734375q0 -1.6875 -0.421875 -2.90625q-0.40625 -1.234375 -1.171875 -2.03125q-0.765625 -0.796875 -1.859375 -1.171875q-1.078125 -0.375 -2.40625 -0.375q-0.984375 0.015625 -1.875 0.296875q-0.875 0.265625 -1.625 0.765625q-0.5 0.328125 -0.953125 0.78125q-0.4375 0.4375 -0.8125 0.96875l-0.203125 -2.5l-2.59375 0l0 16.90625zm18.65625 -8.59375l0 0.328125q0 1.8125 0.484375 3.390625q0.484375 1.5625 1.359375 2.71875q0.875 1.15625 2.109375 1.8125q1.25 0.65625 2.78125 0.65625q1.5625 0 2.734375 -0.53125q1.171875 -0.53125 2.015625 -1.5625l0.125 1.78125l2.65625 0l0 -24.0l-2.890625 0l0 8.765625q-0.828125 -0.96875 -1.96875 -1.46875q-1.125 -0.515625 -2.640625 -0.515625q-1.546875 0 -2.796875 0.640625q-1.25 0.640625 -2.125 1.78125q-0.890625 1.140625 -1.375 2.734375q-0.46875 1.578125 -0.46875 3.46875zm2.890625 0.328125l0 -0.328125q0 -1.234375 0.265625 -2.34375q0.265625 -1.125 0.828125 -1.984375q0.546875 -0.84375 1.40625 -1.34375q0.875 -0.5 2.09375 -0.5q1.421875 0 2.375 0.671875q0.953125 0.65625 1.515625 1.6875l0 7.84375q-0.5625 1.109375 -1.515625 1.765625q-0.953125 0.65625 -2.40625 0.65625q-1.203125 0 -2.0625 -0.484375q-0.859375 -0.5 -1.40625 -1.34375q-0.5625 -0.84375 -0.828125 -1.953125q-0.265625 -1.109375 -0.265625 -2.34375zm24.328125 8.578125q2.46875 0 4.140625 -0.984375q1.6875 -1.0 2.53125 -2.28125l-1.765625 -1.375q-0.796875 1.03125 -2.0 1.65625q-1.203125 0.625 -2.75 0.625q-1.171875 0 -2.140625 -0.4375q-0.96875 -0.4375 -1.65625 -1.203125q-0.671875 -0.71875 -1.0625 -1.65625q-0.375 -0.9375 -0.484375 -2.171875l0 -0.109375l12.078125 0l0 -1.296875q0 -1.765625 -0.453125 -3.28125q-0.4375 -1.515625 -1.34375 -2.640625q-0.90625 -1.109375 -2.28125 -1.734375q-1.359375 -0.640625 -3.1875 -0.640625q-1.453125 0 -2.84375 0.59375q-1.375 0.59375 -2.453125 1.703125q-1.09375 1.125 -1.75 2.75q-0.65625 1.609375 -0.65625 3.65625l0 0.65625q0 1.765625 0.59375 3.265625q0.59375 1.5 1.65625 2.59375q1.0625 1.09375 2.546875 1.703125q1.5 0.609375 3.28125 0.609375zm-0.375 -15.15625q1.109375 0 1.90625 0.40625q0.8125 0.40625 1.34375 1.0625q0.53125 0.65625 0.828125 1.5625q0.296875 0.890625 0.296875 1.671875l0 0.140625l-9.09375 0q0.171875 -1.171875 0.59375 -2.0625q0.4375 -0.90625 1.0625 -1.53125q0.625 -0.609375 1.40625 -0.921875q0.78125 -0.328125 1.65625 -0.328125zm23.1875 -2.375q-1.84375 0 -3.296875 0.8125q-1.4375 0.796875 -2.46875 2.1875l-0.015625 -0.421875l-0.125 -2.265625l-2.75 0l0 16.90625l2.90625 0l0 -10.84375q0.28125 -0.78125 0.703125 -1.40625q0.4375 -0.640625 1.015625 -1.078125q0.640625 -0.5 1.5 -0.75q0.859375 -0.265625 1.921875 -0.265625q0.828125 0 1.578125 0.09375q0.765625 0.078125 1.609375 0.265625l0.390625 -2.828125q-0.4375 -0.1875 -1.3125 -0.296875q-0.859375 -0.109375 -1.65625 -0.109375z" fill-rule="nonzero"/><path fill="#000000" d="m200.0325 499.36417q0 0.90625 0.5625 1.546875q0.578125 0.625 1.703125 0.625q1.109375 0 1.703125 -0.625q0.59375 -0.625 0.59375 -1.546875q0 -0.9375 -0.59375 -1.578125q-0.578125 -0.65625 -1.703125 -0.65625q-1.140625 0 -1.703125 0.65625q-0.5625 0.65625 -0.5625 1.578125zm6.046875 0q0 0.90625 0.5625 1.546875q0.578125 0.625 1.703125 0.625q1.109375 0 1.703125 -0.625q0.59375 -0.625 0.59375 -1.546875q0 -0.9375 -0.59375 -1.578125q-0.578125 -0.65625 -1.703125 -0.65625q-1.140625 0 -1.703125 0.65625q-0.5625 0.65625 -0.5625 1.578125zm5.84375 0q0 0.90625 0.5625 1.546875q0.578125 0.625 1.703125 0.625q1.109375 0 1.703125 -0.625q0.59375 -0.625 0.59375 -1.546875q0 -0.9375 -0.59375 -1.578125q-0.578125 -0.65625 -1.703125 -0.65625q-1.140625 0 -1.703125 0.65625q-0.5625 0.65625 -0.5625 1.578125z" fill-rule="nonzero"/><path fill="#000000" d="m577.2189 499.36417q0 0.90625 0.5625 1.546875q0.578125 0.625 1.703125 0.625q1.109375 0 1.703125 -0.625q0.59375 -0.625 0.59375 -1.546875q0 -0.9375 -0.59375 -1.578125q-0.578125 -0.65625 -1.703125 -0.65625q-1.140625 0 -1.703125 0.65625q-0.5625 0.65625 -0.5625 1.578125zm6.046875 0q0 0.90625 0.5625 1.546875q0.578125 0.625 1.703125 0.625q1.109375 0 1.703125 -0.625q0.59375 -0.625 0.59375 -1.546875q0 -0.9375 -0.59375 -1.578125q-0.578125 -0.65625 -1.703125 -0.65625q-1.140625 0 -1.703125 0.65625q-0.5625 0.65625 -0.5625 1.578125zm5.84375 0q0 0.90625 0.5625 1.546875q0.578125 0.625 1.703125 0.625q1.109375 0 1.703125 -0.625q0.59375 -0.625 0.59375 -1.546875q0 -0.9375 -0.59375 -1.578125q-0.578125 -0.65625 -1.703125 -0.65625q-1.140625 0 -1.703125 0.65625q-0.5625 0.65625 -0.5625 1.578125z" fill-rule="nonzero"/></g></svg>